<svg width="114" height="149" viewBox="0 0 114 149" fill="none" xmlns="http://www.w3.org/2000/svg">
<path d="M98.4023 145.958C97.9881 146.675 98.2339 147.592 98.9514 148.007C99.6688 148.421 100.586 148.175 101 147.458L98.4023 145.958ZM74.3161 118.668L73.9296 120.117L74.3161 118.668ZM106.381 68.5553L107.683 67.8111L106.381 68.5553ZM42.9902 16.58L42.4372 17.9743L42.9902 16.58ZM1.05769 12.7315C0.586461 13.4128 0.756796 14.3472 1.43814 14.8184L12.5413 22.4975C13.2227 22.9688 14.157 22.7984 14.6282 22.1171C15.0995 21.4357 14.9291 20.5014 14.2478 20.0302L4.37831 13.2043L11.2042 3.33476C11.6754 2.65342 11.5051 1.71907 10.8238 1.24784C10.1424 0.776605 9.20807 0.946937 8.73684 1.62829L1.05769 12.7315ZM101 147.458C113.699 125.462 104.448 99.023 84.0554 87.2496L82.5554 89.8477C101.669 100.883 110.185 125.549 98.4023 145.958L101 147.458ZM84.0554 87.2496C77.1886 83.2851 71.3737 82.6834 66.9161 84.5573C62.4665 86.4278 59.7805 90.5932 58.8104 95.2743C56.8861 104.56 61.5447 116.815 73.9296 120.117L74.7026 117.219C64.1737 114.411 60.0751 103.955 61.748 95.8831C62.5765 91.8855 64.7777 88.7104 68.0786 87.3228C71.3714 85.9386 76.1704 86.1613 82.5554 89.8477L84.0554 87.2496ZM73.9296 120.117C82.0306 122.278 89.1863 121.761 95.1233 119.269C101.055 116.78 105.67 112.362 108.764 106.886C114.937 95.9621 115.096 80.7842 107.683 67.8111L105.079 69.2995C112.001 81.4135 111.773 95.464 106.152 105.41C103.349 110.371 99.2162 114.298 93.9624 116.503C88.714 118.705 82.247 119.231 74.7026 117.219L73.9296 120.117ZM107.683 67.8111C93.7726 43.4661 66.7681 24.3961 43.5431 15.1856L42.4372 17.9743C65.2319 27.0141 91.5996 45.71 105.079 69.2995L107.683 67.8111ZM43.5431 15.1856C25.9405 8.20489 10.4097 10.58 2.02236 12.109L2.5604 15.0604C10.8016 13.558 25.6398 11.3129 42.4372 17.9743L43.5431 15.1856Z" fill="#00F8FF"/>
</svg>
