<svg width="64" height="125" viewBox="0 0 64 125" fill="none" xmlns="http://www.w3.org/2000/svg">
<path d="M24.6592 108.2H21.9591V103.1H17.3191V108.2H14.6191V102.64C14.6191 101.41 15.6191 100.4 16.8591 100.4H22.4192C23.6492 100.4 24.6592 101.4 24.6592 102.64V108.2Z" fill="#450145"/>
<path d="M36.9189 108.2H34.2189V103.1H29.5789V108.2H26.8789V102.64C26.8789 101.41 27.8789 100.4 29.1189 100.4H34.679C35.909 100.4 36.9189 101.4 36.9189 102.64V108.2Z" fill="#450145"/>
<path d="M49.189 108.19H46.4889V103.09H41.8489V108.19H39.1489V102.63C39.1489 101.4 40.1489 100.39 41.3889 100.39H46.9489C48.1789 100.39 49.189 101.39 49.189 102.63V108.19Z" fill="#450145"/>
<path d="M24.6489 96.35H21.9489V91.25H17.309V96.35H14.6089V90.79C14.6089 89.56 15.6089 88.55 16.8489 88.55H22.4089C23.6389 88.55 24.6489 89.55 24.6489 90.79V96.35Z" fill="#450145"/>
<path d="M36.9189 96.35H34.2189V91.25H29.5789V96.35H26.8789V90.79C26.8789 89.56 27.8789 88.55 29.1189 88.55H34.679C35.909 88.55 36.9189 89.55 36.9189 90.79V96.35Z" fill="#450145"/>
<path d="M49.1787 96.35H46.4786V91.25H41.8386V96.35H39.1387V90.79C39.1387 89.56 40.1387 88.55 41.3787 88.55H46.9387C48.1687 88.55 49.1787 89.55 49.1787 90.79V96.35Z" fill="#450145"/>
<path d="M24.6489 84.51H21.9489V79.41H17.309V84.51H14.6089V78.95C14.6089 77.72 15.6089 76.71 16.8489 76.71H22.4089C23.6389 76.71 24.6489 77.71 24.6489 78.95V84.51Z" fill="#450145"/>
<path d="M36.9092 84.51H34.2091V79.41H29.5691V84.51H26.8691V78.95C26.8691 77.72 27.8691 76.71 29.1091 76.71H34.6692C35.8992 76.71 36.9092 77.71 36.9092 78.95V84.51Z" fill="#450145"/>
<path d="M49.1787 84.5H46.4786V79.4H41.8386V84.5H39.1387V78.9401C39.1387 77.7101 40.1387 76.7 41.3787 76.7H46.9387C48.1687 76.7 49.1787 77.7001 49.1787 78.9401V84.5Z" fill="#450145"/>
<path d="M42.5986 6.85999C41.2086 6.85999 40.0786 7.99 40.0786 9.38C40.0786 10.77 41.2086 11.9 42.5986 11.9C43.9886 11.9 45.1187 10.77 45.1187 9.38C45.1187 7.99 43.9886 6.85999 42.5986 6.85999Z" fill="#450145"/>
<path d="M53.6288 124.02L10.1888 124.03C4.83884 124.03 0.48877 119.68 0.48877 114.33L0.46875 33.45C0.46875 27.32 5.45875 22.3199 11.5887 22.3199H13.7688V27.1801H11.5887C8.13875 27.1801 5.32874 29.9901 5.32874 33.4401L5.34875 114.32C5.34875 116.99 7.51884 119.16 10.1888 119.16L53.6288 119.15C56.2988 119.15 58.4688 116.98 58.4688 114.31L58.4487 33.4301C58.4487 29.9801 55.6388 27.17 52.1888 27.17H50.0088V22.3101H52.1888C58.3288 22.3101 63.3187 27.3001 63.3187 33.4301L63.3387 114.31C63.3287 119.66 58.9788 124.02 53.6288 124.02Z" fill="#450145"/>
<path d="M50.0687 67.03L13.6987 67.04C10.8387 67.04 8.51879 64.72 8.50879 61.86V46C8.50879 43.14 10.8288 40.8201 13.6888 40.8101L50.0588 40.8C52.9188 40.8 55.2388 43.12 55.2488 45.98V61.84C55.2588 64.7 52.9287 67.03 50.0687 67.03ZM13.6888 44.6C12.9188 44.6 12.2888 45.23 12.2888 46V61.86C12.2888 62.63 12.9188 63.26 13.6888 63.26L50.0588 63.25C50.8288 63.25 51.4587 62.62 51.4587 61.85V45.99C51.4587 45.22 50.8288 44.59 50.0588 44.59L13.6888 44.6Z" fill="#450145"/>
<path d="M52.1589 36.61L11.5989 36.62L11.5889 6.20996C11.5889 2.78996 14.3689 0.0100098 17.7889 0.0100098L45.9489 0C49.3689 0 52.1489 2.77995 52.1489 6.19995L52.1589 36.61ZM15.9189 32.3L47.8289 32.29L47.8188 6.20996C47.8188 5.17996 46.979 4.32996 45.939 4.32996L17.7789 4.33997C16.7489 4.33997 15.8989 5.17997 15.8989 6.21997L15.9189 32.3Z" fill="#450145"/>
</svg>
