<svg width="88" height="120" viewBox="0 0 88 120" fill="none" xmlns="http://www.w3.org/2000/svg">
<path d="M63.8489 119.53L23.9989 119.54C18.1789 119.54 13.449 114.81 13.449 108.99L13.4189 23.7299C13.4189 17.9099 18.1489 13.1799 23.9689 13.1799L63.819 13.1699C69.639 13.1699 74.3689 17.8998 74.3689 23.7198L74.3989 108.98C74.3989 114.79 69.6589 119.53 63.8489 119.53ZM23.9589 19.2999C21.5189 19.2999 19.5289 21.2899 19.5289 23.7299L19.559 108.99C19.559 111.43 21.5489 113.42 23.9889 113.42L63.8389 113.41C66.2789 113.41 68.2689 111.42 68.2689 108.98L68.2389 23.7198C68.2389 21.2798 66.249 19.2899 63.809 19.2899L23.9589 19.2999Z" fill="#450145"/>
<path d="M58.2888 68.5199H54.9988C54.8588 70.9899 54.1888 73.3999 53.4788 74.7799L48.5988 73.6099C49.3788 72.0199 50.1488 69.8299 50.1488 67.3899C50.1488 65.6199 49.6488 64.3499 48.5188 64.3499C47.4188 64.3499 46.7488 65.3799 45.9388 68.0299C44.6988 71.8799 42.8989 74.5999 39.3289 74.5999C36.1089 74.5999 33.5688 72.3799 32.7588 68.3799H29.5088V64.3499H32.4788C32.5888 61.9099 33.0788 60.2499 33.6088 58.9799L38.3088 60.1099C37.9188 61.0699 37.1088 62.7598 37.1088 65.4498C37.1088 67.5398 37.8488 68.1699 38.6288 68.1699C39.5088 68.1699 40.1888 66.9699 41.2388 63.9999C42.6888 59.5499 44.6988 57.9199 47.9188 57.9199C51.2088 57.9199 53.8888 60.2499 54.6688 64.4899H58.2788L58.2888 68.5199Z" fill="#450145"/>
<path d="M87.1692 19.2799H81.0492V9.31982C81.0492 7.60982 79.6592 6.21985 77.9392 6.21985L10.5792 6.23987C8.45922 6.23987 6.73914 7.95983 6.73914 10.0798V19.2999H0.619141V7.91992C0.619141 3.60992 4.10919 0.109863 8.41919 0.109863L79.3591 0.0898438C83.6691 0.0898438 87.1692 3.57989 87.1692 7.88989V19.2799Z" fill="#450145"/>
<path d="M43.8994 51.9698C46.5449 51.9698 48.6895 49.8254 48.6895 47.1799C48.6895 44.5345 46.5449 42.3899 43.8994 42.3899C41.254 42.3899 39.1094 44.5345 39.1094 47.1799C39.1094 49.8254 41.254 51.9698 43.8994 51.9698Z" fill="#450145"/>
<path d="M43.9092 90.3099C46.5546 90.3099 48.6992 88.1653 48.6992 85.5199C48.6992 82.8745 46.5546 80.7299 43.9092 80.7299C41.2637 80.7299 39.1191 82.8745 39.1191 85.5199C39.1191 88.1653 41.2637 90.3099 43.9092 90.3099Z" fill="#450145"/>
</svg>
