<svg width="114" height="89" viewBox="0 0 114 89" fill="none" xmlns="http://www.w3.org/2000/svg">
<path d="M22.3792 36.4998L22.3691 7.13977C22.3691 3.32977 25.4592 0.239746 29.2692 0.239746L86.8092 0.219727C90.6192 0.219727 93.7091 3.30975 93.7091 7.11975V12.7498H87.3292V9.33972C87.3292 7.82972 86.1091 6.60974 84.5991 6.60974L31.4791 6.62976C29.9691 6.62976 28.7491 7.84974 28.7491 9.35974L28.7592 36.5098L22.3792 36.4998Z" fill="#450145"/>
<path d="M40.1589 16.4697L106.569 16.4497C110.379 16.4497 113.469 19.5397 113.469 23.3497L113.489 80.8898C113.489 84.6998 110.399 87.7898 106.589 87.7898L61.679 87.7998V81.4198L104.369 81.4098C105.879 81.4098 107.099 80.1898 107.099 78.6798L107.079 25.5598C107.079 24.0498 105.859 22.8297 104.349 22.8297L40.1489 22.8497L40.1589 16.4697Z" fill="#450145"/>
<path d="M94.8091 57.5797C97.4545 57.5797 99.599 55.4352 99.599 52.7898C99.599 50.1444 97.4545 47.9998 94.8091 47.9998C92.1636 47.9998 90.019 50.1444 90.019 52.7898C90.019 55.4352 92.1636 57.5797 94.8091 57.5797Z" fill="#450145"/>
<path d="M5.80911 77.5098L23.9391 77.4998V72.0997L5.80911 72.1097C5.11911 72.1097 4.5491 71.3998 4.5491 70.5198V59.7397C4.5491 58.8597 5.10911 58.1498 5.80911 58.1498L23.9391 58.1398V52.7397L5.80911 52.7498C2.75911 52.7498 0.279093 55.8897 0.289093 59.7397V70.5198C0.279093 74.3698 2.76911 77.5098 5.80911 77.5098Z" fill="#450145"/>
<path d="M22.4388 87.1498C24.1688 88.4098 26.2387 88.4098 27.9687 87.1498L49.8288 71.1798C51.5588 69.9098 52.5887 67.6498 52.5887 65.1198C52.5887 62.5898 51.5488 60.3297 49.8188 59.0697L27.9587 43.1097C27.0987 42.4797 26.1388 42.1598 25.1988 42.1598C24.2488 42.1598 23.2988 42.4797 22.4388 43.1097C20.7088 44.3697 19.6788 46.6398 19.6788 49.1698V58.1598H23.9488V49.1698C23.9488 48.3398 24.3888 47.9298 24.5788 47.7898C24.7688 47.6498 25.2687 47.3698 25.8387 47.7898L47.6988 63.7498C48.2688 64.1598 48.3288 64.8498 48.3288 65.1198C48.3288 65.3998 48.2688 66.0798 47.6988 66.4998L25.8387 82.4697C25.2787 82.8797 24.7688 82.6097 24.5788 82.4697C24.3888 82.3297 23.9488 81.9197 23.9488 81.0897V72.0997H19.6788V81.0897C19.6688 83.6197 20.7088 85.8798 22.4388 87.1498Z" fill="#450145"/>
</svg>
