<svg width="40" height="32" viewBox="0 0 40 32" fill="none" xmlns="http://www.w3.org/2000/svg">
<rect x="8.8" y="0.8" width="22.4" height="15.7333" rx="1.2" stroke="#450145" stroke-width="1.6"/>
<rect x="7" y="12" width="28" height="7" fill="white"/>
<rect x="29.3335" y="4" width="4" height="10.6667" fill="white"/>
<rect x="12.8" y="6.13337" width="26.4" height="22.4" rx="1.2" stroke="#450145" stroke-width="1.6"/>
<rect x="10.6665" y="30.6666" width="25.3333" height="4" transform="rotate(-90 10.6665 30.6666)" fill="white"/>
<rect x="13.3335" y="26.6666" width="8" height="4" fill="white"/>
<rect x="8.6665" y="24.6666" width="8" height="4" transform="rotate(-90 8.6665 24.6666)" fill="white"/>
<mask id="path-8-inside-1_250_1972" fill="white">
<path d="M0 20C0 19.4477 0.447715 19 1 19H8C8.55228 19 9 19.4477 9 20V26C9 26.5523 8.55228 27 8 27H1C0.447715 27 0 26.5523 0 26L0 20Z"/>
</mask>
<path d="M0 20C0 19.4477 0.447715 19 1 19H8C8.55228 19 9 19.4477 9 20V26C9 26.5523 8.55228 27 8 27H1C0.447715 27 0 26.5523 0 26L0 20Z" fill="white"/>
<path d="M-1.6 20C-1.6 18.5641 -0.43594 17.4 1 17.4H8C9.10457 17.4 10 18.2954 10 19.4L8 20.6H1.6L-1.6 20ZM10 26.6C10 27.7046 9.10457 28.6 8 28.6H1C-0.43594 28.6 -1.6 27.4359 -1.6 26L1.6 25.4H8L10 26.6ZM1 28.6C-0.43594 28.6 -1.6 27.4359 -1.6 26L-1.6 20C-1.6 18.5641 -0.43594 17.4 1 17.4L1.6 20.6L1.6 25.4L1 28.6ZM8 17.4C9.10457 17.4 10 18.2954 10 19.4V26.6C10 27.7046 9.10457 28.6 8 28.6V25.4L8 20.6V17.4Z" fill="#450145" mask="url(#path-8-inside-1_250_1972)"/>
<path d="M32 17.6667C32 16.7462 32.7462 16 33.6667 16V16C34.5871 16 35.3333 16.7462 35.3333 17.6667V17.6667C35.3333 18.5871 34.5871 19.3333 33.6667 19.3333V19.3333C32.7462 19.3333 32 18.5871 32 17.6667V17.6667Z" fill="#450145"/>
<path d="M18.291 22.9826L9.44558 29.8624C9.18283 30.0667 8.8 29.8795 8.8 29.5466V15.7871C8.8 15.4543 9.18283 15.267 9.44558 15.4714L18.291 22.3511C18.4969 22.5113 18.4969 22.8225 18.291 22.9826Z" stroke="#450145" stroke-width="1.6"/>
<rect x="7" y="20.6" width="4" height="4.8" fill="white"/>
</svg>
