<svg width="44" height="39" viewBox="0 0 44 39" fill="none" xmlns="http://www.w3.org/2000/svg">
<rect x="1.3" y="1.2989" width="41.4" height="36.0667" rx="2.7" stroke="#450145" stroke-width="2.6"/>
<rect x="34.6665" y="16.6655" width="4.66667" height="4.66667" rx="2.33333" fill="#450145"/>
<rect x="5" y="22.9989" width="4" height="3" rx="1" fill="#450145"/>
<rect x="5" y="12.9989" width="4" height="3" rx="1" fill="#450145"/>
<rect x="6" y="16.9989" width="2" height="5" rx="0.2" fill="#450145"/>
<path d="M6.05869 8.44264C6.08986 7.08463 7.19967 6 8.55804 6H36.5C37.8807 6 39 7.11929 39 8.5V10C39 10.5523 38.5523 11 38 11V11C37.4477 11 37 10.5523 37 10V10V9V9C37 8.44772 36.5523 8 36 8H22H9C8.44772 8 8 8.44772 8 9V9V10V10C8 10.5523 7.55228 11 7 11V11V11C6.45147 11 6.01036 10.5487 6.02294 10.0003L6.05869 8.44264Z" fill="#450145"/>
<path d="M38.9413 30.5574C38.9101 31.9154 37.8003 33 36.442 33L8.5 33C7.11929 33 6 31.8807 6 30.5V29C6 28.4477 6.44772 28 7 28V28C7.55228 28 8 28.4477 8 29V29V30V30C8 30.5523 8.44772 31 9 31L23 31H36C36.5523 31 37 30.5523 37 30V30V29V29C37 28.4477 37.4477 28 38 28V28V28C38.5485 28 38.9896 28.4513 38.9771 28.9997L38.9413 30.5574Z" fill="#450145"/>
</svg>
