<svg width="122" height="74" viewBox="0 0 122 74" fill="none" xmlns="http://www.w3.org/2000/svg">
<rect x="3" y="3" width="116" height="68" rx="3" stroke="#3E003E" stroke-width="6"/>
<path d="M13.5 28H51M13.5 44H66" stroke="#3E003E" stroke-width="6" stroke-linecap="round"/>
<path d="M91.352 56.424C88.664 56.168 86.488 55.7413 84.824 55.144C83.2027 54.5467 81.9867 54.0133 81.176 53.544L83.608 47.272C84.9733 47.912 86.5733 48.5093 88.408 49.064C90.2427 49.576 92.184 49.832 94.232 49.832C96.6213 49.832 98.2853 49.5333 99.224 48.936C100.163 48.296 100.632 47.3147 100.632 45.992C100.632 45.224 100.44 44.5627 100.056 44.008C99.7147 43.4533 99.1813 42.9627 98.456 42.536C97.7733 42.0667 96.92 41.6613 95.896 41.32C94.872 40.936 93.72 40.5093 92.44 40.04C91.2027 39.6133 89.9867 39.1227 88.792 38.568C87.5973 38.0133 86.5307 37.352 85.592 36.584C84.6533 35.7733 83.8853 34.8133 83.288 33.704C82.7333 32.552 82.456 31.144 82.456 29.48C82.456 28.2853 82.6053 27.1333 82.904 26.024C83.2453 24.9147 83.7573 23.8907 84.44 22.952C85.1653 22.0133 86.104 21.2027 87.256 20.52C88.408 19.7947 89.816 19.24 91.48 18.856V12.648H98.776V18.536C100.739 18.7067 102.467 19.0053 103.96 19.432C105.496 19.8587 106.691 20.2427 107.544 20.584L105.752 27.176C104.515 26.664 103.043 26.216 101.336 25.832C99.672 25.4053 97.944 25.192 96.152 25.192C94.104 25.192 92.6747 25.5547 91.864 26.28C91.096 27.0053 90.712 27.8587 90.712 28.84C90.712 29.5227 90.84 30.0987 91.096 30.568C91.3947 30.9947 91.8213 31.3787 92.376 31.72C92.9733 32.0613 93.6773 32.4027 94.488 32.744C95.2987 33.0427 96.2587 33.384 97.368 33.768C99.032 34.408 100.568 35.0907 101.976 35.816C103.384 36.4987 104.6 37.3093 105.624 38.248C106.648 39.144 107.437 40.2107 107.992 41.448C108.589 42.6853 108.888 44.136 108.888 45.8C108.888 46.952 108.717 48.104 108.376 49.256C108.035 50.3653 107.459 51.4107 106.648 52.392C105.88 53.3307 104.835 54.1627 103.512 54.888C102.232 55.5707 100.611 56.0613 98.648 56.36V63.208H91.352V56.424Z" fill="#3E003E"/>
</svg>
