<svg width="18" height="40" viewBox="0 0 18 40" fill="none" xmlns="http://www.w3.org/2000/svg">
<rect x="0.5" y="8.21423" width="17" height="31.1429" rx="1.5" stroke="#650065"/>
<path d="M3.85693 27.7714V26.1142C3.85693 25.8933 4.03602 25.7142 4.25693 25.7142H4.88551H5.51408C5.73499 25.7142 5.91408 25.8933 5.91408 26.1142V27.7714" stroke="#650065" stroke-width="0.8"/>
<path d="M3.85693 31.6286V29.9714C3.85693 29.7505 4.03602 29.5714 4.25693 29.5714H4.88551H5.51408C5.73499 29.5714 5.91408 29.7505 5.91408 29.9714V31.6286" stroke="#650065" stroke-width="0.8"/>
<path d="M3.85693 35.4857V33.8286C3.85693 33.6077 4.03602 33.4286 4.25693 33.4286H4.88551H5.51408C5.73499 33.4286 5.91408 33.6077 5.91408 33.8286V35.4857" stroke="#650065" stroke-width="0.8"/>
<path d="M7.71436 27.7714V26.1142C7.71436 25.8933 7.89344 25.7142 8.11436 25.7142H8.74293H9.3715C9.59241 25.7142 9.7715 25.8933 9.7715 26.1142V27.7714" stroke="#650065" stroke-width="0.8"/>
<path d="M7.71436 31.6286V29.9714C7.71436 29.7505 7.89344 29.5714 8.11436 29.5714H8.74293H9.3715C9.59241 29.5714 9.7715 29.7505 9.7715 29.9714V31.6286" stroke="#650065" stroke-width="0.8"/>
<path d="M7.71436 35.4857V33.8286C7.71436 33.6077 7.89344 33.4286 8.11436 33.4286H8.74293H9.3715C9.59241 33.4286 9.7715 33.6077 9.7715 33.8286V35.4857" stroke="#650065" stroke-width="0.8"/>
<path d="M11.5713 27.7714V26.1142C11.5713 25.8933 11.7504 25.7142 11.9713 25.7142H12.5999H13.2284C13.4493 25.7142 13.6284 25.8933 13.6284 26.1142V27.7714" stroke="#650065" stroke-width="0.8"/>
<path d="M11.5713 31.6286V29.9714C11.5713 29.7505 11.7504 29.5714 11.9713 29.5714H12.5999H13.2284C13.4493 29.5714 13.6284 29.7505 13.6284 29.9714V31.6286" stroke="#650065" stroke-width="0.8"/>
<path d="M11.5713 35.4857V33.8286C11.5713 33.6077 11.7504 33.4286 11.9713 33.4286H12.5999H13.2284C13.4493 33.4286 13.6284 33.6077 13.6284 33.8286V35.4857" stroke="#650065" stroke-width="0.8"/>
<rect x="3.07129" y="14.6428" width="11.8571" height="6.71429" rx="0.5" stroke="#650065"/>
<path d="M3.57129 0.5H14.4284C14.7046 0.5 14.9284 0.723857 14.9284 1V12.3571H3.07129V1C3.07129 0.723857 3.29515 0.5 3.57129 0.5Z" stroke="#650065"/>
<rect x="10.2856" y="2.57141" width="2.57143" height="2.57143" rx="1.28571" fill="#650065"/>
</svg>
