<svg width="33" height="42" viewBox="0 0 33 42" fill="none" xmlns="http://www.w3.org/2000/svg">
<rect x="3.33857" y="0.8" width="27.5923" height="7.28462" rx="1.2" stroke="#650065" stroke-width="1.6"/>
<rect y="6" width="33" height="4" fill="white"/>
<rect x="7.14619" y="4.60774" width="19.9769" height="36.4769" rx="2.2" stroke="#650065" stroke-width="1.6"/>
<rect x="15.231" y="13.9615" width="3.80769" height="3.80769" rx="1.90385" fill="#650065"/>
<rect x="15.231" y="29.1923" width="3.80769" height="3.80769" rx="1.90385" fill="#650065"/>
<path d="M20.7939 24.8904H11.7029V24.308H20.7939V24.8904ZM14.7037 23.3457C14.4172 23.3741 14.1947 23.496 14.036 23.7114C13.8774 23.9269 13.7981 24.2193 13.7981 24.5886C13.7981 24.8395 13.8336 25.0514 13.9047 25.2242C13.9733 25.3971 14.0692 25.5296 14.1923 25.622C14.3154 25.7119 14.4551 25.7569 14.6113 25.7569C14.7415 25.7616 14.8552 25.7344 14.9522 25.6752C15.0493 25.6137 15.1333 25.5296 15.2044 25.4231C15.273 25.3166 15.3334 25.1935 15.3855 25.0538C15.4352 24.9141 15.4778 24.765 15.5133 24.6063L15.6696 23.9529C15.7406 23.6357 15.8353 23.3445 15.9537 23.0793C16.072 22.8142 16.2176 22.5846 16.3904 22.3904C16.5633 22.1963 16.7669 22.046 17.0012 21.9394C17.2356 21.8305 17.5043 21.7749 17.8074 21.7725C18.2524 21.7749 18.6383 21.8885 18.965 22.1134C19.2894 22.336 19.5415 22.6579 19.7214 23.0793C19.899 23.4984 19.9877 24.0038 19.9877 24.5957C19.9877 25.1828 19.8978 25.6942 19.7179 26.1298C19.5379 26.563 19.2716 26.9016 18.9189 27.1454C18.5637 27.3869 18.1246 27.5135 17.6014 27.5254V26.0374C17.8452 26.0209 18.0488 25.951 18.2122 25.8279C18.3732 25.7025 18.4951 25.5355 18.5779 25.3272C18.6584 25.1165 18.6987 24.8786 18.6987 24.6134C18.6987 24.353 18.6608 24.1269 18.585 23.9352C18.5093 23.741 18.4039 23.5907 18.269 23.4842C18.1341 23.3776 17.979 23.3244 17.8038 23.3244C17.6404 23.3244 17.5031 23.3729 17.3919 23.47C17.2806 23.5647 17.1859 23.7043 17.1078 23.889C17.0297 24.0713 16.9586 24.295 16.8947 24.5602L16.6958 25.3521C16.5467 25.9652 16.3135 26.4494 15.9963 26.8045C15.679 27.1596 15.2517 27.336 14.7143 27.3336C14.274 27.336 13.8893 27.2188 13.5602 26.982C13.2311 26.7429 12.9743 26.415 12.7896 25.9984C12.6049 25.5817 12.5126 25.1082 12.5126 24.5779C12.5126 24.0382 12.6049 23.567 12.7896 23.1646C12.9743 22.7597 13.2311 22.4449 13.5602 22.22C13.8893 21.9951 14.2704 21.8791 14.7037 21.872V23.3457Z" fill="#650065"/>
</svg>
