<svg width="15" height="31" viewBox="0 0 15 31" fill="none" xmlns="http://www.w3.org/2000/svg">
<rect x="0.5" y="6.47229" width="14" height="23.8848" rx="1.5" stroke="#450145"/>
<path d="M3.21436 21.5003V20.3077C3.21436 20.0868 3.39344 19.9077 3.61436 19.9077H4.0715H4.52864C4.74956 19.9077 4.92864 20.0868 4.92864 20.3077V21.5003" stroke="#450145" stroke-width="0.8"/>
<path d="M3.21436 24.4865V23.2939C3.21436 23.073 3.39344 22.8939 3.61436 22.8939H4.0715H4.52864C4.74956 22.8939 4.92864 23.073 4.92864 23.2939V24.4865" stroke="#450145" stroke-width="0.8"/>
<path d="M3.21436 27.4728V26.2801C3.21436 26.0592 3.39344 25.8801 3.61436 25.8801H4.0715H4.52864C4.74956 25.8801 4.92864 26.0592 4.92864 26.2801V27.4728" stroke="#450145" stroke-width="0.8"/>
<path d="M6.42871 21.5003V20.3077C6.42871 20.0868 6.6078 19.9077 6.82871 19.9077H7.28585H7.743C7.96391 19.9077 8.143 20.0868 8.143 20.3077V21.5003" stroke="#450145" stroke-width="0.8"/>
<path d="M6.42871 24.4865V23.2939C6.42871 23.073 6.6078 22.8939 6.82871 22.8939H7.28585H7.743C7.96391 22.8939 8.143 23.073 8.143 23.2939V24.4865" stroke="#450145" stroke-width="0.8"/>
<path d="M6.42871 27.4728V26.2801C6.42871 26.0592 6.6078 25.8801 6.82871 25.8801H7.28585H7.743C7.96391 25.8801 8.143 26.0592 8.143 26.2801V27.4728" stroke="#450145" stroke-width="0.8"/>
<path d="M9.64258 21.5003V20.3077C9.64258 20.0868 9.82166 19.9077 10.0426 19.9077H10.4997H10.9569C11.1778 19.9077 11.3569 20.0868 11.3569 20.3077V21.5003" stroke="#450145" stroke-width="0.8"/>
<path d="M9.64258 24.4865V23.2939C9.64258 23.073 9.82166 22.8939 10.0426 22.8939H10.4997H10.9569C11.1778 22.8939 11.3569 23.073 11.3569 23.2939V24.4865" stroke="#450145" stroke-width="0.8"/>
<path d="M9.64258 27.4728V26.2801C9.64258 26.0592 9.82166 25.8801 10.0426 25.8801H10.4997H10.9569C11.1778 25.8801 11.3569 26.0592 11.3569 26.2801V27.4728" stroke="#450145" stroke-width="0.8"/>
<rect x="2.64258" y="11.4493" width="9.71429" height="4.97235" rx="0.5" stroke="#450145"/>
<path d="M3.76465 0.5H11.2352C12.0637 0.5 12.7352 1.17157 12.7352 2V8.96613H2.26465V2C2.26465 1.17157 2.93622 0.5 3.76465 0.5Z" stroke="#450145"/>
<rect x="8.57129" y="1.99072" width="2.14286" height="1.99078" rx="0.995391" fill="#450145"/>
</svg>
