<svg width="55" height="36" viewBox="0 0 55 36" fill="none" xmlns="http://www.w3.org/2000/svg">
<path d="M4.03906 17.25V15.75H1.03906V17.25H4.03906ZM1.03906 34.5C1.03906 35.3284 1.71064 36 2.53906 36C3.36749 36 4.03906 35.3284 4.03906 34.5H1.03906ZM1.03906 17.25L1.03906 34.5H4.03906L4.03906 17.25H1.03906Z" fill="#500250"/>
<path d="M53.6328 17.25V15.75H50.6328V17.25H53.6328ZM50.6328 34.5C50.6328 35.3284 51.3044 36 52.1328 36C52.9612 36 53.6328 35.3284 53.6328 34.5H50.6328ZM50.6328 17.25V34.5H53.6328V17.25H50.6328Z" fill="#500250"/>
<path d="M6.09514 11.2659L27.1889 16.2201" stroke="#500250" stroke-width="3"/>
<line x1="51.8997" y1="10.6325" x2="26.0247" y2="16.0232" stroke="#500250" stroke-width="3"/>
<path d="M5.23438 2.15625C5.23438 2.15625 32.4257 2.15625 50.5156 2.15625" stroke="#500250" stroke-width="3" stroke-linecap="round" stroke-linejoin="round"/>
<path d="M53.2109 4.85156V8.08594" stroke="#500250" stroke-width="3"/>
<path d="M3.07812 34.5H52.6719" stroke="#500250" stroke-width="3"/>
<path d="M2.53906 5.92969V7.54688" stroke="#500250" stroke-width="3"/>
<path d="M5.23438 2.15625V2.15625C3.7458 2.15625 2.53906 3.36298 2.53906 4.85156V7.00781" stroke="#500250" stroke-width="3"/>
<path d="M53.2109 4.85156V4.85156C53.2109 3.36298 52.0042 2.15625 50.5156 2.15625V2.15625" stroke="#500250" stroke-width="3"/>
<path d="M49.4375 11.3203C50.0574 11.1773 50.5972 11.0553 51.0662 10.9518C52.8789 10.5518 53.2109 8.86419 53.2109 7.00781V7.00781" stroke="#500250" stroke-width="3"/>
<path d="M2.53906 7.00781V7.00781C2.23463 8.83438 3.38462 10.5883 5.18109 11.0375L6.3125 11.3203" stroke="#500250" stroke-width="3"/>
<path d="M23.5625 25.3359C23.5625 23.5496 25.0106 22.1016 26.7969 22.1016V22.1016C28.5832 22.1016 30.0313 23.5496 30.0313 25.3359V25.3359C30.0313 27.1222 28.5832 28.5703 26.7969 28.5703V28.5703C25.0106 28.5703 23.5625 27.1222 23.5625 25.3359V25.3359Z" fill="#500250"/>
</svg>
