<svg width="21" height="12" viewBox="0 0 21 12" fill="none" xmlns="http://www.w3.org/2000/svg">
<path fill-rule="evenodd" clip-rule="evenodd" d="M4.4978 10.05L10.4949 12L16.4919 10.05L20.9897 6L16.4919 1.95L10.4949 0L4.4978 1.95L0 6L4.4978 10.05ZM4.91017 9.40453L10.4945 11.2188L16.0921 9.40453L19.8574 6.00014L16.0921 2.5931L10.4945 0.780139L4.91017 2.5931L1.13446 6.00014L4.91017 9.40453ZM6.7473 7.55256L8.94253 9.74886H12.0484L14.2436 7.55256V4.44652L12.0484 2.25021H8.94253L6.7473 4.44652V7.55256ZM9.25251 8.99901L7.49633 7.24197V4.75714L9.25251 3.00009H11.7372L13.4934 4.75714V7.24197L11.7372 8.99901H9.25251ZM9.36987 6.46525L10.0284 7.12414H10.9602L11.6188 6.46525V5.53344L10.9602 4.87455H10.0284L9.36987 5.53344V6.46525Z" fill="white"/>
</svg>
