<svg width="417" height="279" viewBox="0 0 417 279" fill="none" xmlns="http://www.w3.org/2000/svg">
<g opacity="0.8">
<path d="M0 278.35V11.7489H0.0785971V11.6703H0.235791V11.5917H0.392985V11.5131H0.471582V11.4345H0.628776V11.3559H0.785971V11.2773H0.864568V11.1987H1.02176V11.1201H1.17896V11.0415H1.33615V10.9629H1.41475V10.8843H1.57194V10.8057H1.72914V10.7271H1.88633V10.6485H2.04352V10.5699H2.12212V10.4913H2.27931V10.4127H2.43651V10.3341H2.5937V10.2555H2.7509V10.1769H2.90809V10.0983H3.06529V10.0197H3.22248V9.94113H3.37967V9.86255H3.53687V9.78394H3.61546V9.70535H3.77266V9.62674H3.92985V9.54816H4.08705V9.46954H4.24424V9.39096H4.40144V9.31235H4.63723V9.23376H4.79442V9.15515H4.95161V9.07657H5.10881V8.99796H5.266V8.91937H5.4232V8.84076H5.58039V8.76218H5.73759V8.68359H5.89478V8.60498H6.05197V8.5264H6.28777V8.44778H6.44496V8.3692H6.60215V8.29059H6.75935V8.21201H6.91654V8.13339H7.15233V8.05481H7.30953V7.9762H7.46672V7.89761H7.62391V7.819H7.85971V7.74042H8.0169V7.6618H8.25269V7.58322H8.40989V7.50464H8.56708V7.42603H8.80287V7.34744H8.96006V7.26883H9.11726V7.19025H9.35305V7.11163H9.51024V7.03305H9.74604V6.95444H9.90323V6.87585H10.139V6.79724H10.2962V6.71866H10.532V6.64005H10.6892V6.56146H10.925V6.48285H11.1608V6.40427H11.318V6.32568H11.5538V6.24707H11.7896V6.16849H11.9468V6.08987H12.1825V6.01129H12.4183V5.93268H12.6541V5.8541H12.8113V5.77548H13.0471V5.6969H13.2829V5.61829H13.5187V5.5397H13.7545V5.46109H13.9903V5.38251H14.2261V5.30389H14.4619V5.22531H14.6977V5.1467H14.9334V5.06812H15.1692V4.98953H15.405V4.91092H15.6408V4.83234H15.8766V4.75372H16.1124V4.67514H16.3482V4.59653H16.6626V4.51794H16.8984V4.43933H17.1342V4.36075H17.4485V4.28214H17.6843V4.20355H17.9987V4.12494H18.2345V4.04636H18.4703V3.96774H18.7847V3.88916H19.0991V3.81058H19.4135V3.73196H19.6493V3.65338H19.9637V3.57477H20.278V3.49619H20.5924V3.41757H20.9068V3.33899H21.2212V3.26038H21.5356V3.18179H21.85V3.10318H22.1644V3.0246H22.4788V2.94598H22.8717V2.8674H23.1861V2.78879H23.5791V2.71021H23.8935V2.63159H24.2865V2.55301H24.6795V2.47443H25.0725V2.39581H25.4654V2.31723H25.8584V2.23862H26.33V2.16003H26.723V2.08142H27.1946V2.00284H27.6662V1.92422H28.1377V1.84564H28.6093V1.76703H29.1595V1.68845H29.7097V1.60983H30.2599V1.53125H30.81V1.45264H31.4388V1.37405H32.1462V1.29547H32.8536V1.21686H33.6395V1.13828H34.5041V1.05966H35.4473V0.981079H36.7048V0.902466H38.2768V0.823883H45.1147V0.902466H46.5295V0.981079H47.8656V1.05966H48.8088V1.13828H49.5947V1.21686H50.4593V1.29547H51.1667V1.37405H51.7955V1.45264H52.4242V1.53125H53.053V1.60983H53.6032V1.68845H54.0748V1.76703H54.625V1.84564H55.0965V1.92422H55.5681V2.00284H56.1183V2.08142H56.5113V2.16003H56.9043V2.23862H57.2973V2.31723H57.6902V2.39581H58.1618V2.47443H58.5548V2.55301H58.9478V2.63159H59.2622V2.71021H59.6552V2.78879H59.9696V2.8674H60.2839V2.94598H60.6769V3.0246H60.9913V3.10318H61.3057V3.18179H61.6987V3.26038H62.0131V3.33899H62.3275V3.41757H62.5633V3.49619H62.8776V3.57477H63.192V3.65338H63.5064V3.73196H63.7422V3.81058H64.0566V3.88916H64.371V3.96774H64.6854V4.04636H64.9212V4.12494H65.157V4.20355H65.4714V4.28214H65.7071V4.36075H65.9429V4.43933H66.1787V4.51794H66.4931V4.59653H66.7289V4.67514H66.9647V4.75372H67.2791V4.83234H67.5149V4.91092H67.7507V4.98953H67.9865V5.06812H68.2223V5.1467H68.458V5.22531H68.6938V5.30389H68.9296V5.38251H69.1654V5.46109H69.3226V5.5397H69.5584V5.61829H69.7942V5.6969H70.03V5.77548H70.2658V5.8541H70.5016V5.93268H70.7374V6.01129H70.8945V6.08987H71.1303V6.16849H71.3661V6.24707H71.5233V6.32568H71.7591V6.40427H71.9163V6.48285H72.1521V6.56146H72.3879V6.64005H72.5451V6.71866H72.7809V6.79724H73.0167V6.87585H73.1739V6.95444H73.4097V7.03305H73.5668V7.11163H73.8026V7.19025H73.9598V7.26883H74.117V7.34744H74.3528V7.42603H74.51V7.50464H74.7458V7.58322H74.903V7.6618H75.0602V7.74042H75.296V7.819H75.4532V7.89761H75.6104V7.9762H75.8462V8.05481H76.0034V8.13339H76.1606V8.21201H76.3963V8.29059H76.5535V8.3692H76.7107V8.44778H76.8679V8.5264H77.1037V8.60498H77.2609V8.68359H77.4181V8.76218H77.5753V8.84076H77.7325V8.91937H77.8897V8.99796H78.1255V9.07657H78.2827V9.15515H78.4399V9.23376H78.5971V9.31235H78.7543V9.39096H78.9115V9.46954H79.0686V9.54816H79.3044V9.62674H79.4616V9.70535H79.6188V9.78394H79.776V9.86255H79.9332V9.94113H80.0904V10.0197H80.2476V10.0983H80.4048V10.1769H80.562V10.2555H80.7192V10.3341H80.8764V10.4127H81.0336V10.4913H81.1908V10.5699H81.2694V10.6485H81.4266V10.7271H81.5837V10.8057H81.7409V10.8843H81.8981V10.9629H82.0553V11.0415H82.2125V11.1201H82.3697V11.1987H82.5269V11.2773H82.6841V11.3559H82.8413V11.4345H82.9985V11.5131H83.1557V11.5917H83.2343V11.6703H83.3915V11.7489H83.5487V11.8275H83.7059V11.9061H83.8631V11.9846H83.9417V12.0633H84.0989V12.1418H84.2561V12.2205H84.4132V12.299H84.5704V12.3777H84.649V12.4562H84.8062V12.5349H84.9634V12.6134H85.1206V12.692H85.2778V12.7706H85.3564V12.8492H85.5136V12.9278H85.6708V13.0064H85.828V13.085H85.9852V13.1636H86.0638V13.2422H86.221V13.3208H86.3782V13.3994H86.4568V13.478H86.614V13.5566H86.7712V13.6352H86.8498V13.7138H87.007V13.7924H87.1641V13.871H87.2427V13.9496H87.3999V14.0282H87.5571V14.1068H87.6357V14.1854H87.7929V14.264H87.9501V14.3426H88.0287V14.4212H88.1859V14.4998H88.3431V14.5784H88.4217V14.657H88.5789V14.7356H88.7361V14.8141H88.8147V14.8928H88.9719V14.9713H89.0505V15.05H89.2077V15.1285H89.2863V15.2071H89.4435V15.2857H89.6006V15.3643H89.6792V15.4429H89.8364V15.5215H89.915V15.6001H90.0722V15.6787H90.1508V15.7573H90.308V15.8359H90.3866V15.9145H90.5438V15.9931H90.6224V16.0717H90.7796V16.1503H90.9368V16.2289H91.0154V16.3075H91.1726V16.3861H91.2512V16.4647H91.4084V16.5433H91.487V16.6219H91.6442V16.7005H91.7228V16.7791H91.88V16.8577H91.9586V16.9363H92.1158V17.0149H92.1944V17.0935H92.3515V17.1721H92.4301V17.2507H92.5873V17.3293H92.6659V17.4079H92.8231V17.4865H92.9017V17.565H92.9803V17.6436H93.1375V17.7222H93.2161V17.8008H93.3733V17.8794H93.4519V17.958H93.6091V18.0366H93.6877V18.1152H93.7663V18.1938H93.9235V18.2724H94.0021V18.351H94.1593V18.4296H94.2379V18.5082H94.3951V18.5868H94.4737V18.6654H94.5523V18.744H94.7095V18.8226H94.7881V18.9012H94.9453V18.9798H95.0238V19.0584H95.181V19.137H95.2596V19.2156H95.3382V19.2942H95.4954V19.3728H95.574V19.4514H95.6526V19.53H95.8098V19.6086H95.8884V19.6872H95.967V19.7658H96.1242V19.8444H96.2028V19.923H96.2814V20.0016H96.4386V20.0801H96.5172V20.1588H96.5958V20.2373H96.753V20.3159H96.8316V20.3945H96.9102V20.4731H97.0674V20.5517H97.146V20.6303H97.2246V20.7089H97.3818V20.7875H97.4604V20.8661H97.539V20.9447H97.6961V21.0233H97.7747V21.1019H97.8533V21.1805H98.0105V21.2591H98.0891V21.3377H98.2463V21.4163H98.3249V21.4949H98.4035V21.5735H98.4821V21.6521H98.6393V21.7307H98.7179V21.8093H98.7965V21.8879H98.8751V21.9665H99.0323V22.0451H99.1109V22.1237H99.1895V22.2023H99.2681V22.2809H99.4253V22.3595H99.5039V22.4381H99.5825V22.5167H99.6611V22.5953H99.8183V22.6739H99.8969V22.7525H99.9755V22.8311H100.054V22.9097H100.211V22.9883H100.29V23.0668H100.368V23.1454H100.447V23.224H100.604V23.3026H100.683V23.3812H100.761V23.4598H100.84V23.5384H100.997V23.617H101.076V23.6956H101.154V23.7742H101.233V23.8528H101.39V23.9314H101.469V24.01H101.547V24.0886H101.626V24.1672H101.705V24.2458H101.862V24.3244H101.94V24.403H102.019V24.4816H102.098V24.5602H102.176V24.6388H102.255V24.7174H102.412V24.796H102.491V24.8746H102.569V24.9532H102.648V25.0318H102.726V25.1104H102.884V25.189H102.962V25.2676H103.041V25.3462H103.119V25.4248H103.198V25.5034H103.277V25.582H103.434V25.6606H103.512V25.7391H103.591V25.8177H103.67V25.8963H103.748V25.9749H103.827V26.0535H103.984V26.1321H104.063V26.2107H104.141V26.2893H104.22V26.3679H104.298V26.4465H104.377V26.5251H104.534V26.6037H104.613V26.6823H104.691V26.7609H104.77V26.8395H104.848V26.9181H104.927V26.9967H105.006V27.0753H105.084V27.1539H105.241V27.2325H105.32V27.3111H105.399V27.3897H105.477V27.4683H105.556V27.5469H105.634V27.6255H105.713V27.7041H105.792V27.7827H105.87V27.8613H105.949V27.9399H106.106V28.0185H106.185V28.0971H106.263V28.1756H106.342V28.2542H106.42V28.3328H106.499V28.4114H106.578V28.49H106.656V28.5686H106.735V28.6472H106.813V28.7258H106.971V28.8044H107.049V28.883H107.128V28.9616H107.206V29.0402H107.285V29.1188H107.364V29.1974H107.442V29.276H107.521V29.3546H107.599V29.4332H107.678V29.5118H107.835V29.5904H107.914V29.669H107.992V29.7476H108.071V29.8262H108.15V29.9048H108.228V29.9834H108.307V30.062H108.385V30.1406H108.464V30.2192H108.543V30.2978H108.621V30.3764H108.7V30.455H108.778V30.5336H108.857V30.6122H108.936V30.6908H109.014V30.7693H109.093V30.8479H109.171V30.9265H109.25V31.0051H109.329V31.0837H109.407V31.1623H109.486V31.2409H109.564V31.3195H109.643V31.3981H109.721V31.4767H109.8V31.5553H109.879V31.6339H110.036V31.7125H110.114V31.7911H110.193V31.8697H110.272V31.9483H110.35V32.0269H110.429V32.1055H110.507V32.1841H110.586V32.2627H110.665V32.3413H110.743V32.4199H110.822V32.4985H110.9V32.5771H110.979V32.6557H111.058V32.7343H111.136V32.8129H111.215V32.8915H111.293V32.9701H111.372V33.0487H111.451V33.1273H111.529V33.2059H111.608V33.2845H111.686V33.3631H111.765V33.4417H111.844V33.5202H111.922V33.5988H112.001V33.6774H112.079V33.756H112.158V33.8346H112.237V33.9132H112.315V33.9918H112.394V34.0704H112.472V34.2276H112.551V34.3062H112.63V34.3848H112.708V34.4634H112.787V34.542H112.865V34.6206H112.944V34.6992H113.023V34.7778H113.101V34.8564H113.18V34.935H113.258V35.0136H113.337V35.0922H113.416V35.1708H113.494V35.2494H113.573V35.328H113.651V35.4066H113.73V35.4852H113.809V35.5638H113.887V35.6424H113.966V35.721H114.044V35.7996H114.123V35.8782H114.202V35.9568H114.28V36.0354H114.359V36.114H114.437V36.1926H114.516V36.2711H114.595V36.4283H114.673V36.5069H114.752V36.5855H114.83V36.6641H114.909V36.7427H114.988V36.8213H115.066V36.8999H115.145V36.9785H115.223V37.0571H115.302V37.1357H115.38V37.2143H115.459V37.2929H115.538V37.4501H115.616V37.5287H115.695V37.6073H115.773V37.6859H115.852V37.7645H115.931V37.8431H116.009V37.9217H116.088V38.0003H116.166V38.0789H116.245V38.1575H116.324V38.2361H116.402V38.3933H116.481V38.4719H116.559V38.5505H116.638V38.6291H116.717V38.7077H116.795V38.7863H116.874V38.8649H116.952V38.9435H117.031V39.022H117.11V39.1006H117.188V39.1792H117.267V39.3364H117.345V39.415H117.424V39.4936H117.503V39.5722H117.581V39.6508H117.66V39.7294H117.738V39.808H117.817V39.8866H117.896V40.0438H117.974V40.1224H118.053V40.201H118.131V40.2796H118.21V40.3582H118.289V40.4368H118.367V40.594H118.446V40.6726H118.524V40.7512H118.603V40.8298H118.682V40.9084H118.76V40.987H118.839V41.0656H118.917V41.2228H118.996V41.3014H119.075V41.38H119.153V41.4586H119.232V41.5372H119.31V41.6158H119.389V41.7729H119.468V41.8515H119.546V41.9301H119.625V42.0087H119.703V42.0873H119.782V42.1659H119.861V42.2445H119.939V42.4017H120.018V42.4803H120.096V42.5589H120.175V42.6375H120.254V42.7161H120.332V42.7947H120.411V42.8733H120.489V43.0305H120.568V43.1091H120.646V43.1877H120.725V43.2663H120.804V43.3449H120.882V43.5021H120.961V43.5807H121.039V43.6593H121.118V43.7379H121.197V43.8165H121.275V43.9737H121.354V44.0523H121.432V44.1309H121.511V44.2095H121.59V44.3667H121.668V44.4452H121.747V44.5238H121.825V44.6024H121.904V44.681H121.983V44.8382H122.061V44.9168H122.14V44.9954H122.218V45.074H122.297V45.2312H122.376V45.3098H122.454V45.3884H122.533V45.467H122.611V45.5456H122.69V45.7028H122.769V45.7814H122.847V45.86H122.926V45.9386H123.004V46.0958H123.083V46.1744H123.162V46.253H123.24V46.3316H123.319V46.4102H123.397V46.5674H123.476V46.646H123.555V46.7246H123.633V46.8032H123.712V46.9603H123.79V47.0389H123.869V47.1175H123.948V47.1961H124.026V47.3533H124.105V47.4319H124.183V47.5105H124.262V47.5891H124.341V47.7463H124.419V47.8249H124.498V47.9035H124.576V48.0607H124.655V48.1393H124.734V48.2179H124.812V48.2965H124.891V48.4537H124.969V48.5323H125.048V48.6109H125.127V48.7681H125.205V48.8467H125.284V48.9253H125.362V49.0039H125.441V49.1611H125.52V49.2397H125.598V49.3183H125.677V49.4754H125.755V49.554H125.834V49.6326H125.912V49.7112H125.991V49.8684H126.07V49.947H126.148V50.0256H126.227V50.1828H126.305V50.2614H126.384V50.34H126.463V50.4186H126.541V50.5758H126.62V50.6544H126.698V50.733H126.777V50.8902H126.856V50.9688H126.934V51.0474H127.013V51.2046H127.091V51.2832H127.17V51.3618H127.249V51.519H127.327V51.5976H127.406V51.6762H127.484V51.8334H127.563V51.912H127.642V51.9906H127.72V52.1478H127.799V52.2263H127.877V52.3049H127.956V52.4621H128.035V52.5407H128.113V52.6979H128.192V52.7765H128.27V52.8551H128.349V53.0123H128.428V53.0909H128.506V53.1695H128.585V53.3267H128.663V53.4053H128.742V53.4839H128.821V53.6411H128.899V53.7197H128.978V53.7983H129.056V53.9555H129.135V54.0341H129.214V54.1913H129.292V54.2699H129.371V54.3485H129.449V54.5057H129.528V54.5843H129.607V54.6629H129.685V54.8201H129.764V54.8987H129.842V54.9772H129.921V55.1344H130V55.213H130.078V55.3702H130.157V55.4488H130.235V55.5274H130.314V55.6846H130.393V55.7632H130.471V55.9204H130.55V55.999H130.628V56.0776H130.707V56.2348H130.786V56.3134H130.864V56.4706H130.943V56.5492H131.021V56.7064H131.1V56.785H131.178V56.8636H131.257V57.0208H131.336V57.0994H131.414V57.2566H131.493V57.3352H131.571V57.4924H131.65V57.571H131.729V57.6496H131.807V57.8067H131.886V57.8853H131.964V58.0425H132.043V58.1211H132.122V58.2783H132.2V58.3569H132.279V58.5141H132.357V58.5927H132.436V58.6713H132.515V58.8285H132.593V58.9071H132.672V59.0643H132.75V59.1429H132.829V59.3001H132.908V59.3787H132.986V59.4573H133.065V59.6145H133.143V59.6931H133.222V59.8503H133.301V59.9289H133.379V60.0861H133.458V60.1647H133.536V60.3219H133.615V60.4005H133.694V60.5576H133.772V60.6362H133.851V60.7934H133.929V60.872H134.008V61.0292H134.087V61.1078H134.165V61.265H134.244V61.3436H134.322V61.5008H134.401V61.5794H134.48V61.7366H134.558V61.8152H134.637V61.9724H134.715V62.051H134.794V62.2082H134.873V62.2868H134.951V62.444H135.03V62.5226H135.108V62.6798H135.187V62.7584H135.266V62.9156H135.344V62.9942H135.423V63.1513H135.501V63.2299H135.58V63.3871H135.659V63.4657H135.737V63.6229H135.816V63.7015H135.894V63.8587H135.973V63.9373H136.052V64.0945H136.13V64.2517H136.209V64.3303H136.287V64.4875H136.366V64.5661H136.445V64.7233H136.523V64.8019H136.602V64.9591H136.68V65.0377H136.759V65.1949H136.837V65.2735H136.916V65.4307H136.995V65.5879H137.073V65.6664H137.152V65.8236H137.23V65.9022H137.309V66.0594H137.388V66.138H137.466V66.2952H137.545V66.4524H137.623V66.531H137.702V66.6882H137.781V66.7668H137.859V66.924H137.938V67.0812H138.016V67.1598H138.095V67.317H138.174V67.3956H138.252V67.5528H138.331V67.71H138.409V67.7886H138.488V67.9458H138.567V68.0244H138.645V68.1815H138.724V68.3387H138.802V68.4173H138.881V68.5745H138.96V68.6531H139.038V68.8103H139.117V68.9675H139.195V69.0461H139.274V69.2033H139.353V69.2819H139.431V69.4391H139.51V69.5963H139.588V69.6749H139.667V69.8321H139.746V69.9107H139.824V70.0679H139.903V70.2251H139.981V70.3037H140.06V70.4609H140.139V70.6181H140.217V70.6967H140.296V70.8539H140.374V71.011H140.453V71.0896H140.532V71.2468H140.61V71.404H140.689V71.4826H140.767V71.6398H140.846V71.797H140.925V71.8756H141.003V72.0328H141.082V72.19H141.16V72.2686H141.239V72.4258H141.318V72.583H141.396V72.6616H141.475V72.8188H141.553V72.976H141.632V73.1332H141.71V73.2118H141.789V73.369H141.868V73.5262H141.946V73.6048H142.025V73.7619H142.103V73.9191H142.182V73.9977H142.261V74.1549H142.339V74.3121H142.418V74.3907H142.496V74.5479H142.575V74.7051H142.654V74.7837H142.732V74.9409H142.811V75.0981H142.889V75.1767H142.968V75.3339H143.047V75.4911H143.125V75.6483H143.204V75.7269H143.282V75.8841H143.361V76.0413H143.44V76.1985H143.518V76.2771H143.597V76.4342H143.675V76.5914H143.754V76.7486H143.833V76.8272H143.911V76.9844H143.99V77.1416H144.068V77.2988H144.147V77.3774H144.226V77.5346H144.304V77.6918H144.383V77.849H144.461V77.9276H144.54V78.0848H144.619V78.242H144.697V78.3992H144.776V78.4778H144.854V78.635H144.933V78.7922H145.012V78.9494H145.09V79.028H145.169V79.1852H145.247V79.3423H145.326V79.4995H145.405V79.5781H145.483V79.7353H145.562V79.8925H145.64V80.0497H145.719V80.2069H145.798V80.2855H145.876V80.4427H145.955V80.5999H146.033V80.7571H146.112V80.9143H146.191V81.0715H146.269V81.1501H146.348V81.3073H146.426V81.4645H146.505V81.6217H146.584V81.7003H146.662V81.8574H146.741V82.0146H146.819V82.1718H146.898V82.2504H146.977V82.4076H147.055V82.5648H147.134V82.722H147.212V82.8006H147.291V82.9578H147.369V83.115H147.448V83.2722H147.527V83.3508H147.605V83.508H147.684V83.6652H147.762V83.7438H147.841V83.901H147.92V84.0582H147.998V84.1368H148.077V84.294H148.155V84.4511H148.234V84.5297H148.313V84.6869H148.391V84.7655H148.47V84.9227H148.548V85.0799H148.627V85.1585H148.706V85.3157H148.784V85.4729H148.863V85.5515H148.941V85.7087H149.02V85.8659H149.099V85.9445H149.177V86.1017H149.256V86.1803H149.334V86.3375H149.413V86.4947H149.492V86.5733H149.57V86.7305H149.649V86.8091H149.727V86.9662H149.806V87.0448H149.885V87.202H149.963V87.2806H150.042V87.4378H150.12V87.595H150.199V87.6736H150.278V87.8308H150.356V87.9094H150.435V88.0666H150.513V88.1452H150.592V88.3024H150.671V88.381H150.749V88.5382H150.828V88.6168H150.906V88.774H150.985V88.8526H151.064V89.0098H151.142V89.0884H151.221V89.2456H151.299V89.3242H151.378V89.4814H151.457V89.56H151.535V89.6385H151.614V89.7957H151.692V89.8743H151.771V90.0315H151.85V90.1101H151.928V90.2673H152.007V90.3459H152.085V90.5031H152.164V90.5817H152.243V90.7389H152.321V90.8175H152.4V90.8961H152.478V91.0533H152.557V91.1319H152.635V91.2891H152.714V91.3677H152.793V91.4463H152.871V91.6035H152.95V91.6821H153.028V91.8393H153.107V91.9179H153.186V91.9965H153.264V92.1537H153.343V92.2323H153.421V92.3109H153.5V92.468H153.579V92.5466H153.657V92.7038H153.736V92.7824H153.814V92.861H153.893V93.0182H153.972V93.0968H154.05V93.1754H154.129V93.3326H154.207V93.4112H154.286V93.4898H154.365V93.647H154.443V93.7256H154.522V93.8042H154.6V93.9614H154.679V94.04H154.758V94.1186H154.836V94.1972H154.915V94.3544H154.993V94.433H155.072V94.5116H155.151V94.6688H155.229V94.7474H155.308V94.826H155.386V94.9832H155.465V95.0618H155.544V95.1404H155.622V95.2189H155.701V95.3761H155.779V95.4547H155.858V95.5333H155.937V95.6119H156.015V95.7691H156.094V95.8477H156.172V95.9263H156.251V96.0049H156.33V96.1621H156.408V96.2407H156.487V96.3193H156.565V96.3979H156.644V96.5551H156.723V96.6337H156.801V96.7123H156.88V96.7909H156.958V96.8695H157.037V97.0267H157.116V97.1053H157.194V97.1839H157.273V97.2625H157.351V97.4197H157.43V97.4983H157.509V97.5769H157.587V97.6555H157.666V97.7341H157.744V97.8913H157.823V97.9698H157.901V98.0484H157.98V98.127H158.059V98.2056H158.137V98.2842H158.216V98.4414H158.294V98.52H158.373V98.5986H158.452V98.6772H158.53V98.7558H158.609V98.8344H158.687V98.9916H158.766V99.0702H158.845V99.1488H158.923V99.2274H159.002V99.306H159.08V99.3846H159.159V99.5418H159.238V99.6204H159.316V99.699H159.395V99.7776H159.473V99.8562H159.552V99.9348H159.631V100.013H159.709V100.092H159.788V100.249H159.866V100.328H159.945V100.406H160.024V100.485H160.102V100.564H160.181V100.642H160.259V100.721H160.338V100.799H160.417V100.878H160.495V100.957H160.574V101.114H160.652V101.192H160.731V101.271H160.81V101.35H160.888V101.428H160.967V101.507H161.045V101.585H161.124V101.664H161.203V101.743H161.281V101.821H161.36V101.9H161.438V101.978H161.517V102.135H161.596V102.214H161.674V102.293H161.753V102.371H161.831V102.45H161.91V102.528H161.989V102.607H162.067V102.686H162.146V102.764H162.224V102.843H162.303V102.921H162.382V103H162.46V103.079H162.539V103.157H162.617V103.236H162.696V103.314H162.775V103.393H162.853V103.472H162.932V103.55H163.01V103.629H163.089V103.707H163.167V103.786H163.246V103.865H163.325V103.943H163.403V104.022H163.482V104.1H163.56V104.179H163.639V104.258H163.718V104.336H163.796V104.415H163.875V104.493H163.953V104.572H164.032V104.651H164.111V104.729H164.189V104.808H164.268V104.886H164.346V104.965H164.425V105.044H164.504V105.122H164.582V105.201H164.661V105.279H164.739V105.358H164.818V105.437H164.897V105.515H164.975V105.594H165.054V105.672H165.132V105.751H165.211V105.83H165.29V105.908H165.368V105.987H165.447V106.065H165.525V106.144H165.604V106.223H165.683V106.301H165.761V106.38H165.84V106.458H165.918V106.537H165.997V106.616H166.154V106.694H166.233V106.773H166.311V106.851H166.39V106.93H166.469V107.008H166.547V107.087H166.626V107.166H166.704V107.244H166.783V107.323H166.862V107.401H166.94V107.48H167.019V107.559H167.097V107.637H167.176V107.716H167.333V107.794H167.412V107.873H167.49V107.952H167.569V108.03H167.648V108.109H167.726V108.187H167.805V108.266H167.883V108.345H167.962V108.423H168.119V108.502H168.198V108.58H168.276V108.659H168.355V108.738H168.434V108.816H168.512V108.895H168.591V108.973H168.669V109.052H168.826V109.131H168.905V109.209H168.984V109.288H169.062V109.366H169.141V109.445H169.219V109.524H169.298V109.602H169.455V109.681H169.534V109.759H169.612V109.838H169.691V109.917H169.77V109.995H169.848V110.074H170.005V110.152H170.084V110.231H170.163V110.31H170.241V110.388H170.32V110.467H170.398V110.545H170.556V110.624H170.634V110.703H170.713V110.781H170.791V110.86H170.87V110.938H171.027V111.017H171.106V111.096H171.184V111.174H171.263V111.253H171.342V111.331H171.499V111.41H171.577V111.489H171.656V111.567H171.735V111.646H171.892V111.724H171.97V111.803H172.049V111.882H172.128V111.96H172.285V112.039H172.363V112.117H172.442V112.196H172.521V112.275H172.599V112.353H172.756V112.432H172.835V112.51H172.914V112.589H172.992V112.667H173.149V112.746H173.228V112.825H173.307V112.903H173.385V112.982H173.542V113.06H173.621V113.139H173.7V113.218H173.857V113.296H173.935V113.375H174.014V113.453H174.171V113.532H174.25V113.611H174.328V113.689H174.407V113.768H174.564V113.846H174.643V113.925H174.721V114.004H174.878V114.082H174.957V114.161H175.036V114.239H175.193V114.318H175.271V114.397H175.35V114.475H175.507V114.554H175.586V114.632H175.664V114.711H175.822V114.79H175.9V114.868H175.979V114.947H176.136V115.025H176.215V115.104H176.293V115.183H176.45V115.261H176.529V115.34H176.686V115.418H176.765V115.497H176.843V115.576H177.001V115.654H177.079V115.733H177.158V115.811H177.315V115.89H177.394V115.969H177.472V116.047H177.629V116.126H177.708V116.204H177.865V116.283H177.944V116.362H178.101V116.44H178.18V116.519H178.258V116.597H178.415V116.676H178.494V116.755H178.651V116.833H178.73V116.912H178.887V116.99H178.966V117.069H179.044V117.148H179.201V117.226H179.28V117.305H179.437V117.383H179.516V117.462H179.673V117.541H179.751V117.619H179.909V117.698H179.987V117.776H180.144V117.855H180.223V117.934H180.38V118.012H180.459V118.091H180.616V118.169H180.695V118.248H180.852V118.326H180.93V118.405H181.088V118.484H181.166V118.562H181.323V118.641H181.402V118.719H181.559V118.798H181.638V118.877H181.795V118.955H181.874V119.034H182.031V119.112H182.109V119.191H182.267V119.27H182.345V119.348H182.502V119.427H182.66V119.505H182.738V119.584H182.895V119.663H182.974V119.741H183.131V119.82H183.21V119.898H183.367V119.977H183.524V120.056H183.603V120.134H183.76V120.213H183.839V120.291H183.996V120.37H184.074V120.449H184.232V120.527H184.389V120.606H184.467V120.684H184.624V120.763H184.782V120.842H184.86V120.92H185.017V120.999H185.175V121.077H185.253V121.156H185.41V121.235H185.489V121.313H185.646V121.392H185.803V121.47H185.882V121.549H186.039V121.628H186.196V121.706H186.275V121.785H186.432V121.863H186.589V121.942H186.668V122.021H186.825V122.099H186.982V122.178H187.14V122.256H187.218V122.335H187.375V122.414H187.533V122.492H187.69V122.571H187.768V122.649H187.926V122.728H188.083V122.807H188.161V122.885H188.319V122.964H188.476V123.042H188.633V123.121H188.712V123.199H188.869V123.278H189.026V123.357H189.183V123.435H189.34V123.514H189.419V123.592H189.576V123.671H189.733V123.75H189.891V123.828H190.048V123.907H190.126V123.985H190.283V124.064H190.441V124.143H190.598V124.221H190.755V124.3H190.834V124.378H190.991V124.457H191.148V124.536H191.305V124.614H191.462V124.693H191.62V124.771H191.777V124.85H191.934V124.929H192.013V125.007H192.17V125.086H192.327V125.164H192.484V125.243H192.641V125.322H192.799V125.4H192.956V125.479H193.113V125.557H193.27V125.636H193.427V125.715H193.506V125.793H193.663V125.872H193.82V125.95H193.978V126.029H194.135V126.108H194.292V126.186H194.449V126.265H194.606V126.343H194.764V126.422H194.921V126.501H195.078V126.579H195.235V126.658H195.392V126.736H195.549V126.815H195.707V126.894H195.864V126.972H196.021V127.051H196.178V127.129H196.335V127.208H196.493V127.287H196.65V127.365H196.807V127.444H197.043V127.522H197.2V127.601H197.357V127.68H197.514V127.758H197.672V127.837H197.829V127.915H197.986V127.994H198.143V128.073H198.3V128.151H198.458V128.23H198.615V128.308H198.851V128.387H199.008V128.465H199.165V128.544H199.322V128.623H199.479V128.701H199.637V128.78H199.872V128.858H200.03V128.937H200.187V129.016H200.344V129.094H200.501V129.173H200.658V129.251H200.894V129.33H201.051V129.409H201.208V129.487H201.366V129.566H201.601V129.644H201.759V129.723H201.916V129.802H202.073V129.88H202.309V129.959H202.466V130.037H202.623V130.116H202.78V130.195H203.016V130.273H203.173V130.352H203.331V130.43H203.488V130.509H203.724V130.588H203.881V130.666H204.117V130.745H204.274V130.823H204.431V130.902H204.667V130.981H204.824V131.059H204.981V131.138H205.217V131.216H205.374V131.295H205.531V131.374H205.767V131.452H205.924V131.531H206.16V131.609H206.317V131.688H206.553V131.767H206.71V131.845H206.946V131.924H207.103V132.002H207.26V132.081H207.496V132.16H207.653V132.238H207.889V132.317H208.046V132.395H208.282V132.474H208.439V132.553H208.675V132.631H208.832V132.71H209.068V132.788H209.225V132.867H209.461V132.946H209.697V133.024H209.854V133.103H210.09V133.181H210.247V133.26H210.483V133.339H210.719V133.417H210.876V133.496H211.112V133.574H211.269V133.653H211.505V133.732H211.74V133.81H211.898V133.889H212.133V133.967H212.369V134.046H212.526V134.124H212.762V134.203H212.998V134.282H213.155V134.36H213.391V134.439H213.627V134.517H213.863V134.596H214.02V134.675H214.256V134.753H214.491V134.832H214.727V134.91H214.963V134.989H215.12V135.068H215.356V135.146H215.592V135.225H215.828V135.303H215.985V135.382H216.221V135.461H216.456V135.539H216.692V135.618H216.928V135.696H217.164V135.775H217.399V135.854H217.635V135.932H217.871V136.011H218.028V136.089H218.264V136.168H218.5V136.247H218.736V136.325H218.971V136.404H219.207V136.482H219.443V136.561H219.679V136.64H219.915V136.718H220.15V136.797H220.386V136.875H220.622V136.954H220.858V137.033H221.094V137.111H221.329V137.19H221.565V137.268H221.801V137.347H222.115V137.426H222.351V137.504H222.587V137.583H222.823V137.661H223.058V137.74H223.294V137.819H223.53V137.897H223.844V137.976H224.08V138.054H224.316V138.133H224.552V138.212H224.788V138.29H225.102V138.369H225.338V138.447H225.574V138.526H225.809V138.605H226.124V138.683H226.36V138.762H226.595V138.84H226.831V138.919H227.146V138.998H227.381V139.076H227.617V139.155H227.931V139.233H228.167V139.312H228.482V139.39H228.717V139.469H228.953V139.548H229.268V139.626H229.503V139.705H229.739V139.783H230.054V139.862H230.289V139.941H230.604V140.019H230.84V140.098H231.154V140.176H231.39V140.255H231.704V140.334H231.94V140.412H232.254V140.491H232.49V140.569H232.804V140.648H233.119V140.727H233.355V140.805H233.669V140.884H233.905V140.962H234.219V141.041H234.534V141.12H234.769V141.198H235.084V141.277H235.398V141.355H235.634V141.434H235.948V141.513H236.263V141.591H236.577V141.67H236.813V141.748H237.127V141.827H237.442V141.906H237.678V141.984H237.992V142.063H238.306V142.141H238.621V142.22H238.935V142.299H239.249V142.377H239.485V142.456H239.8V142.534H240.114V142.613H240.428V142.692H240.743V142.77H241.057V142.849H241.372V142.927H241.686V143.006H242V143.085H242.315V143.163H242.629V143.242H242.944V143.32H243.258V143.399H243.572V143.478H243.887V143.556H244.201V143.635H244.515V143.713H244.83V143.792H245.144V143.871H245.459V143.949H245.773V144.028H246.087V144.106H246.402V144.185H246.716V144.264H247.109V144.342H247.424V144.421H247.738V144.499H248.052V144.578H248.367V144.656H248.76V144.735H249.074V144.814H249.388V144.892H249.703V144.971H250.096V145.049H250.41V145.128H250.725V145.207H251.039V145.285H251.432V145.364H251.746V145.442H252.061V145.521H252.454V145.6H252.768V145.678H253.083V145.757H253.476V145.835H253.79V145.914H254.183V145.993H254.497V146.071H254.812V146.15H255.205V146.228H255.519V146.307H255.912V146.386H256.226V146.464H256.619V146.543H256.934V146.621H257.327V146.7H257.641V146.779H258.034V146.857H258.349V146.936H258.742V147.014H259.056V147.093H259.449V147.172H259.763V147.25H260.156V147.329H260.471V147.407H260.864V147.486H261.257V147.565H261.571V147.643H261.964V147.722H262.278V147.8H262.671V147.879H263.064V147.958H263.379V148.036H263.772V148.115H264.165V148.193H264.479V148.272H264.872V148.351H265.265V148.429H265.579V148.508H265.972V148.586H266.365V148.665H266.68V148.744H267.073V148.822H267.466V148.901H267.859V148.979H268.173V149.058H268.566V149.137H268.959V149.215H269.352V149.294H269.667V149.372H270.06V149.451H270.452V149.53H270.845V149.608H271.16V149.687H271.553V149.765H271.946V149.844H272.339V149.923H272.732V150.001H273.046V150.08H273.439V150.158H273.832V150.237H274.225V150.315H274.54V150.394H274.933V150.473H275.326V150.551H275.719V150.63H276.111V150.708H276.426V150.787H276.819V150.866H277.212V150.944H277.605V151.023H277.998V151.101H278.312V151.18H278.705V151.259H279.098V151.337H279.491V151.416H279.884V151.494H280.199V151.573H280.592V151.652H280.984V151.73H281.377V151.809H281.77V151.887H282.085V151.966H282.478V152.045H282.871V152.123H283.264V152.202H283.657V152.28H283.971V152.359H284.364V152.438H284.757V152.516H285.15V152.595H285.465V152.673H285.858V152.752H286.25V152.831H286.643V152.909H286.958V152.988H287.351V153.066H287.744V153.145H288.137V153.224H288.451V153.302H288.844V153.381H289.237V153.459H289.552V153.538H289.945V153.617H290.338V153.695H290.652V153.774H291.045V153.852H291.438V153.931H291.752V154.01H292.145V154.088H292.538V154.167H292.853V154.245H293.246V154.324H293.639V154.403H293.953V154.481H294.346V154.56H294.66V154.638H295.053V154.717H295.446V154.796H295.761V154.874H296.154V154.953H296.468V155.031H296.861V155.11H297.175V155.188H297.568V155.267H297.883V155.346H298.276V155.424H298.59V155.503H298.983V155.581H299.298V155.66H299.691V155.739H300.005V155.817H300.398V155.896H300.712V155.974H301.027V156.053H301.42V156.132H301.734V156.21H302.127V156.289H302.441V156.367H302.756V156.446H303.149V156.525H303.463V156.603H303.778V156.682H304.171V156.76H304.485V156.839H304.799V156.918H305.114V156.996H305.507V157.075H305.821V157.153H306.136V157.232H306.45V157.311H306.843V157.389H307.157V157.468H307.472V157.546H307.786V157.625H308.1V157.704H308.415V157.782H308.729V157.861H309.122V157.939H309.437V158.018H309.751V158.097H310.065V158.175H310.38V158.254H310.694V158.332H311.009V158.411H311.323V158.49H311.637V158.568H311.952V158.647H312.266V158.725H312.581V158.804H312.895V158.883H313.209V158.961H313.524V159.04H313.838V159.118H314.152V159.197H314.467V159.276H314.781V159.354H315.017V159.433H315.331V159.511H315.646V159.59H315.96V159.669H316.275V159.747H316.589V159.826H316.825V159.904H317.139V159.983H317.454V160.062H317.768V160.14H318.004V160.219H318.318V160.297H318.632V160.376H318.947V160.455H319.183V160.533H319.497V160.612H319.811V160.69H320.047V160.769H320.362V160.847H320.597V160.926H320.912V161.005H321.226V161.083H321.462V161.162H321.776V161.24H322.091V161.319H322.327V161.398H322.641V161.476H322.877V161.555H323.191V161.633H323.427V161.712H323.741V161.791H323.977V161.869H324.291V161.948H324.527V162.026H324.763V162.105H325.077V162.184H325.313V162.262H325.628V162.341H325.863V162.419H326.099V162.498H326.414V162.577H326.649V162.655H326.964V162.734H327.2V162.812H327.435V162.891H327.671V162.97H327.986V163.048H328.221V163.127H328.457V163.205H328.693V163.284H329.007V163.363H329.243V163.441H329.479V163.52H329.715V163.598H330.029V163.677H330.265V163.756H330.501V163.834H330.736V163.913H330.972V163.991H331.208V164.07H331.444V164.149H331.758V164.227H331.994V164.306H332.23V164.384H332.466V164.463H332.701V164.542H332.937V164.62H333.173V164.699H333.409V164.777H333.645V164.856H333.88V164.935H334.116V165.013H334.352V165.092H334.588V165.17H334.823V165.249H335.059V165.328H335.295V165.406H335.531V165.485H335.767V165.563H336.002V165.642H336.238V165.721H336.474V165.799H336.631V165.878H336.867V165.956H337.103V166.035H337.339V166.113H337.574V166.192H337.81V166.271H338.046V166.349H338.203V166.428H338.439V166.506H338.675V166.585H338.911V166.664H339.146V166.742H339.304V166.821H339.539V166.899H339.775V166.978H340.011V167.057H340.168V167.135H340.404V167.214H340.64V167.292H340.797V167.371H341.033V167.45H341.268V167.528H341.426V167.607H341.661V167.685H341.897V167.764H342.054V167.843H342.29V167.921H342.526V168H342.683V168.078H342.919V168.157H343.076V168.236H343.312V168.314H343.548V168.393H343.705V168.471H343.941V168.55H344.098V168.629H344.334V168.707H344.491V168.786H344.727V168.864H344.962V168.943H345.12V169.022H345.355V169.1H345.513V169.179H345.67V169.257H345.906V169.336H346.063V169.415H346.299V169.493H346.456V169.572H346.692V169.65H346.849V169.729H347.085V169.808H347.242V169.886H347.478V169.965H347.635V170.043H347.792V170.122H348.028V170.201H348.185V170.279H348.342V170.358H348.578V170.436H348.735V170.515H348.892V170.594H349.128V170.672H349.285V170.751H349.443V170.829H349.678V170.908H349.836V170.987H349.993V171.065H350.229V171.144H350.386V171.222H350.543V171.301H350.7V171.379H350.936V171.458H351.093V171.537H351.25V171.615H351.407V171.694H351.643V171.772H351.8V171.851H351.958V171.93H352.115V172.008H352.351V172.087H352.508V172.165H352.665V172.244H352.822V172.323H352.979V172.401H353.137V172.48H353.294V172.558H353.53V172.637H353.687V172.716H353.844V172.794H354.001V172.873H354.158V172.951H354.316V173.03H354.473V173.109H354.709V173.187H354.866V173.266H355.023V173.344H355.18V173.423H355.337V173.502H355.495V173.58H355.652V173.659H355.809V173.737H355.966V173.816H356.123V173.895H356.28V173.973H356.438V174.052H356.595V174.13H356.752V174.209H356.909V174.288H357.066V174.366H357.224V174.445H357.381V174.523H357.538V174.602H357.695V174.681H357.852V174.759H358.01V174.838H358.167V174.916H358.324V174.995H358.481V175.074H358.638V175.152H358.796V175.231H358.953V175.309H359.11V175.388H359.267V175.467H359.424V175.545H359.582V175.624H359.66V175.702H359.817V175.781H359.975V175.86H360.132V175.938H360.289V176.017H360.446V176.095H360.603V176.174H360.682V176.253H360.839V176.331H360.996V176.41H361.154V176.488H361.311V176.567H361.468V176.646H361.625V176.724H361.704V176.803H361.861V176.881H362.018V176.96H362.175V177.038H362.332V177.117H362.411V177.196H362.568V177.274H362.725V177.353H362.883V177.431H362.961V177.51H363.118V177.589H363.276V177.667H363.433V177.746H363.59V177.824H363.669V177.903H363.826V177.982H363.983V178.06H364.14V178.139H364.219V178.217H364.376V178.296H364.533V178.375H364.612V178.453H364.769V178.532H364.926V178.61H365.005V178.689H365.162V178.768H365.319V178.846H365.476V178.925H365.555V179.003H365.712V179.082H365.869V179.161H365.948V179.239H366.105V179.318H366.262V179.396H366.341V179.475H366.498V179.554H366.577V179.632H366.734V179.711H366.891V179.789H366.97V179.868H367.127V179.947H367.284V180.025H367.363V180.104H367.52V180.182H367.598V180.261H367.756V180.34H367.913V180.418H367.991V180.497H368.149V180.575H368.227V180.654H368.384V180.733H368.542V180.811H368.62V180.89H368.777V180.968H368.856V181.047H369.013V181.126H369.092V181.204H369.249V181.283H369.328V181.361H369.485V181.44H369.563V181.519H369.721V181.597H369.799V181.676H369.956V181.754H370.114V181.833H370.192V181.912H370.349V181.99H370.428V182.069H370.585V182.147H370.664V182.226H370.821V182.304H370.9V182.383H370.978V182.462H371.135V182.54H371.214V182.619H371.371V182.697H371.45V182.776H371.607V182.855H371.686V182.933H371.843V183.012H371.921V183.09H372.078V183.169H372.157V183.248H372.314V183.326H372.393V183.405H372.471V183.483H372.629V183.562H372.707V183.641H372.864V183.719H372.943V183.798H373.022V183.876H373.179V183.955H373.257V184.034H373.415V184.112H373.493V184.191H373.572V184.269H373.729V184.348H373.808V184.427H373.965V184.505H374.043V184.584H374.122V184.662H374.279V184.741H374.358V184.82H374.436V184.898H374.594V184.977H374.672V185.055H374.829V185.134H374.908V185.213H374.987V185.291H375.144V185.37H375.222V185.448H375.301V185.527H375.38V185.606H375.537V185.684H375.615V185.763H375.694V185.841H375.851V185.92H375.93V185.999H376.008V186.077H376.166V186.156H376.244V186.234H376.323V186.313H376.48V186.392H376.559V186.47H376.637V186.549H376.794V186.627H376.873V186.706H376.952V186.785H377.03V186.863H377.187V186.942H377.266V187.02H377.344V187.099H377.423V187.178H377.58V187.256H377.659V187.335H377.737V187.413H377.816V187.492H377.973V187.57H378.052V187.649H378.13V187.728H378.209V187.806H378.366V187.885H378.445V187.963H378.523V188.042H378.602V188.121H378.759V188.199H378.838V188.278H378.916V188.356H378.995V188.435H379.074V188.514H379.231V188.592H379.309V188.671H379.388V188.749H379.467V188.828H379.545V188.907H379.624V188.985H379.781V189.064H379.86V189.142H379.938V189.221H380.017V189.3H380.095V189.378H380.253V189.457H380.331V189.535H380.41V189.614H380.488V189.693H380.567V189.771H380.724V189.85H380.803V189.928H380.881V190.007H380.96V190.086H381.039V190.164H381.117V190.243H381.196V190.321H381.274V190.4H381.432V190.479H381.51V190.557H381.589V190.636H381.667V190.714H381.746V190.793H381.825V190.872H381.903V190.95H381.982V191.029H382.139V191.107H382.217V191.186H382.296V191.265H382.375V191.343H382.453V191.422H382.532V191.5H382.611V191.579H382.689V191.658H382.768V191.736H382.925V191.815H383.003V191.893H383.082V191.972H383.161V192.051H383.239V192.129H383.318V192.208H383.396V192.286H383.475V192.365H383.554V192.444H383.632V192.522H383.711V192.601H383.789V192.679H383.868V192.758H383.947V192.836H384.025V192.915H384.104V192.994H384.261V193.072H384.34V193.151H384.418V193.229H384.497V193.308H384.575V193.387H384.654V193.465H384.733V193.544H384.811V193.622H384.89V193.701H384.968V193.78H385.047V193.858H385.126V193.937H385.204V194.015H385.283V194.094H385.361V194.173H385.44V194.251H385.519V194.33H385.597V194.408H385.676V194.487H385.754V194.566H385.833V194.644H385.912V194.723H385.99V194.801H386.069V194.88H386.147V194.959H386.226V195.037H386.305V195.116H386.383V195.194H386.462V195.273H386.54V195.352H386.619V195.43H386.698V195.509H386.776V195.587H386.855V195.666H386.933V195.745H387.012V195.823H387.091V195.98H387.169V196.059H387.248V196.138H387.326V196.216H387.405V196.295H387.484V196.373H387.562V196.452H387.641V196.531H387.719V196.609H387.798V196.688H387.876V196.766H387.955V196.845H388.034V196.924H388.112V197.002H388.191V197.081H388.269V197.159H388.348V197.238H388.427V197.395H388.505V197.474H388.584V197.552H388.662V197.631H388.741V197.71H388.82V197.788H388.898V197.867H388.977V197.945H389.055V198.024H389.134V198.181H389.213V198.26H389.291V198.338H389.37V198.417H389.448V198.495H389.527V198.574H389.606V198.653H389.684V198.731H389.763V198.81H389.841V198.967H389.92V199.046H389.999V199.124H390.077V199.203H390.156V199.281H390.234V199.36H390.313V199.517H390.392V199.596H390.47V199.674H390.549V199.753H390.627V199.832H390.706V199.91H390.785V200.067H390.863V200.146H390.942V200.225H391.02V200.303H391.099V200.382H391.178V200.539H391.256V200.618H391.335V200.696H391.413V200.775H391.492V200.853H391.571V200.932H391.649V201.089H391.728V201.168H391.806V201.246H391.885V201.325H391.964V201.482H392.042V201.561H392.121V201.639H392.199V201.718H392.278V201.875H392.357V201.954H392.435V202.032H392.514V202.111H392.592V202.268H392.671V202.347H392.75V202.425H392.828V202.504H392.907V202.661H392.985V202.74H393.064V202.818H393.142V202.897H393.221V203.054H393.3V203.133H393.378V203.211H393.457V203.368H393.535V203.447H393.614V203.526H393.693V203.683H393.771V203.761H393.85V203.84H393.928V203.997H394.007V204.076H394.086V204.154H394.164V204.312H394.243V204.39H394.321V204.469H394.4V204.547H394.479V204.705H394.557V204.783H394.636V204.862H394.714V205.019H394.793V205.098H394.872V205.255H394.95V205.333H395.029V205.412H395.107V205.569H395.186V205.648H395.265V205.805H395.343V205.884H395.422V205.962H395.5V206.119H395.579V206.198H395.658V206.355H395.736V206.434H395.815V206.512H395.893V206.67H395.972V206.748H396.051V206.905H396.129V206.984H396.208V207.063H396.286V207.22H396.365V207.298H396.444V207.456H396.522V207.534H396.601V207.691H396.679V207.77H396.758V207.927H396.837V208.006H396.915V208.163H396.994V208.242H397.072V208.399H397.151V208.477H397.23V208.635H397.308V208.713H397.387V208.87H397.465V208.949H397.544V209.106H397.623V209.185H397.701V209.342H397.78V209.42H397.858V209.578H397.937V209.656H398.016V209.813H398.094V209.971H398.173V210.049H398.251V210.206H398.33V210.285H398.409V210.442H398.487V210.599H398.566V210.678H398.644V210.835H398.723V210.914H398.801V211.071H398.88V211.15H398.959V211.307H399.037V211.464H399.116V211.543H399.194V211.7H399.273V211.778H399.352V211.936H399.43V212.093H399.509V212.25H399.587V212.329H399.666V212.486H399.745V212.643H399.823V212.722H399.902V212.879H399.98V213.036H400.059V213.115H400.138V213.272H400.216V213.429H400.295V213.586H400.373V213.665H400.452V213.822H400.531V213.979H400.609V214.058H400.688V214.215H400.766V214.372H400.845V214.529H400.924V214.686H401.002V214.765H401.081V214.922H401.159V215.079H401.238V215.237H401.317V215.394H401.395V215.551H401.474V215.63H401.552V215.787H401.631V215.944H401.71V216.101H401.788V216.258H401.867V216.337H401.945V216.494H402.024V216.651H402.103V216.809H402.181V216.966H402.26V217.123H402.338V217.28H402.417V217.437H402.496V217.595H402.574V217.752H402.653V217.909H402.731V218.066H402.81V218.223H402.889V218.381H402.967V218.538H403.046V218.695H403.124V218.774H403.203V218.931H403.282V219.088H403.36V219.245H403.439V219.481H403.517V219.638H403.596V219.795H403.674V219.952H403.753V220.11H403.832V220.267H403.91V220.424H403.989V220.581H404.068V220.738H404.146V220.896H404.225V221.053H404.303V221.289H404.382V221.446H404.46V221.603H404.539V221.76H404.618V221.917H404.696V222.075H404.775V222.31H404.853V222.468H404.932V222.625H405.011V222.782H405.089V223.018H405.168V223.175H405.246V223.332H405.325V223.489H405.404V223.725H405.482V223.882H405.561V224.04H405.639V224.275H405.718V224.433H405.797V224.59H405.875V224.826H405.954V224.983H406.032V225.14H406.111V225.376H406.19V225.533H406.268V225.769H406.347V225.926H406.425V226.162H406.504V226.319H406.583V226.555H406.661V226.712H406.74V226.869H406.818V227.105H406.897V227.262H406.976V227.498H407.054V227.734H407.133V227.891H407.211V228.127H407.29V228.362H407.369V228.52H407.447V228.755H407.526V228.991H407.604V229.148H407.683V229.384H407.762V229.62H407.84V229.777H407.919V230.013H407.997V230.249H408.076V230.484H408.155V230.642H408.233V230.877H408.312V231.113H408.39V231.349H408.469V231.585H408.548V231.821H408.626V232.056H408.705V232.292H408.783V232.449H408.862V232.685H408.941V232.921H409.019V233.157H409.098V233.471H409.176V233.707H409.255V233.943H409.333V234.179H409.412V234.414H409.491V234.65H409.569V234.886H409.648V235.2H409.726V235.436H409.805V235.672H409.884V235.908H409.962V236.143H410.041V236.458H410.119V236.694H410.198V237.008H410.277V237.244H410.355V237.558H410.434V237.794H410.512V238.108H410.591V238.344H410.67V238.58H410.748V238.894H410.827V239.209H410.905V239.445H410.984V239.759H411.063V240.073H411.141V240.388H411.22V240.702H411.298V240.938H411.377V241.252H411.456V241.567H411.534V241.881H411.613V242.195H411.691V242.51H411.77V242.824H411.849V243.217H411.927V243.532H412.006V243.846H412.084V244.16H412.163V244.475H412.242V244.868H412.32V245.182H412.399V245.497H412.477V245.89H412.556V246.282H412.635V246.675H412.713V246.99H412.792V247.383H412.87V247.776H412.949V248.169H413.028V248.483H413.106V248.876H413.185V249.348H413.263V249.741H413.342V250.212H413.421V250.605H413.499V250.998H413.578V251.47H413.656V251.863H413.735V252.334H413.814V252.806H413.892V253.278H413.971V253.749H414.049V254.221H414.128V254.692H414.207V255.243H414.285V255.714H414.364V256.264H414.442V256.815H414.521V257.365H414.599V257.993H414.678V258.544H414.757V259.094H414.835V259.723H414.914V260.43H414.992V261.059H415.071V261.766H415.15V262.395H415.228V263.102H415.307V263.967H415.385V264.753H415.464V265.539H415.543V266.403H415.621V267.347H415.7V268.368H415.778V269.39H415.857V270.49H415.936V271.827H416.014V273.241H416.093V274.735H416.171V276.7H416.25V278.35" fill="url(#paint0_radial_163_15548)"/>
<path d="M0 278.35V109.131H0.235791V109.052H0.471582V108.973H0.707374V108.895H0.943165V108.816H1.25755V108.738H1.49334V108.659H1.72914V108.58H1.96493V108.502H2.27931V108.423H2.51511V108.345H2.7509V108.266H3.06529V108.187H3.30108V108.109H3.61546V108.03H3.85126V107.952H4.16564V107.873H4.40144V107.794H4.71582V107.716H5.03021V107.637H5.266V107.559H5.58039V107.48H5.89478V107.401H6.20917V107.323H6.44496V107.244H6.75935V107.166H7.07374V107.087H7.38812V107.008H7.70251V106.93H8.0169V106.851H8.33129V106.773H8.72427V106.694H9.03866V106.616H9.35305V106.537H9.66744V106.458H10.0604V106.38H10.3748V106.301H10.7678V106.223H11.0822V106.144H11.4752V106.065H11.7896V105.987H12.1825V105.908H12.5755V105.83H12.9685V105.751H13.3615V105.672H13.6759V105.594H14.0689V105.515H14.5405V105.437H14.9334V105.358H15.3264V105.279H15.7194V105.201H16.191V105.122H16.584V105.044H17.0556V104.965H17.5271V104.886H17.9987V104.808H18.3917V104.729H18.9419V104.651H19.4135V104.572H19.8851V104.493H20.4352V104.415H20.9068V104.336H21.457V104.258H22.0072V104.179H22.636V104.1H23.1861V104.022H23.8149V103.943H24.4437V103.865H25.0725V103.786H25.7012V103.707H26.4086V103.629H27.116V103.55H27.9806V103.472H28.7665V103.393H29.6311V103.314H30.5743V103.236H31.596V103.157H32.775V103.079H34.1111V103H35.7617V102.921H38.041V102.843H44.8789V102.921H47.0796V103H48.6516V103.079H49.9877V103.157H51.0095V103.236H52.0313V103.314H52.8958V103.393H53.7604V103.472H54.5464V103.55H55.2537V103.629H55.8825V103.707H56.5899V103.786H57.2187V103.865H57.7688V103.943H58.319V104.022H58.9478V104.1H59.4194V104.179H59.9696V104.258H60.4411V104.336H60.9127V104.415H61.4629V104.493H61.8559V104.572H62.3275V104.651H62.7205V104.729H63.192V104.808H63.6636V104.886H64.0566V104.965H64.4496V105.044H64.8426V105.122H65.2356V105.201H65.5499V105.279H65.9429V105.358H66.3359V105.437H66.6503V105.515H67.0433V105.594H67.3577V105.672H67.7507V105.751H68.0651V105.83H68.3794V105.908H68.7724V105.987H69.0868V106.065H69.4012V106.144H69.7156V106.223H70.03V106.301H70.2658V106.38H70.5802V106.458H70.8945V106.537H71.2089V106.616H71.5233V106.694H71.7591V106.773H72.0735V106.851H72.3093V106.93H72.6237V107.008H72.9381V107.087H73.1739V107.166H73.4883V107.244H73.724V107.323H73.9598V107.401H74.1956V107.48H74.51V107.559H74.7458V107.637H74.9816V107.716H75.296V107.794H75.5318V107.873H75.7676V107.952H76.0034V108.03H76.2392V108.109H76.4749V108.187H76.7107V108.266H76.9465V108.345H77.1823V108.423H77.4181V108.502H77.6539V108.58H77.8897V108.659H78.1255V108.738H78.3613V108.816H78.5971V108.895H78.7543V108.973H78.99V109.052H79.2258V109.131H79.4616V109.209H79.6188V109.288H79.8546V109.366H80.0904V109.445H80.3262V109.524H80.4834V109.602H80.7192V109.681H80.8764V109.759H81.1122V109.838H81.348V109.917H81.5051V109.995H81.7409V110.074H81.8981V110.152H82.1339V110.231H82.2911V110.31H82.5269V110.388H82.6841V110.467H82.9199V110.545H83.0771V110.624H83.3129V110.703H83.4701V110.781H83.6273V110.86H83.8631V110.938H84.0203V111.017H84.1775V111.096H84.4132V111.174H84.5704V111.253H84.7276V111.331H84.9634V111.41H85.1206V111.489H85.2778V111.567H85.5136V111.646H85.6708V111.724H85.828V111.803H85.9852V111.882H86.1424V111.96H86.2996V112.039H86.5354V112.117H86.6926V112.196H86.8498V112.274H87.007V112.353H87.1641V112.432H87.3999V112.51H87.5571V112.589H87.7143V112.667H87.8715V112.746H88.0287V112.825H88.1859V112.903H88.3431V112.982H88.5003V113.06H88.6575V113.139H88.8147V113.218H88.9719V113.296H89.1291V113.375H89.2863V113.453H89.4435V113.532H89.6006V113.611H89.7578V113.689H89.915V113.768H90.0722V113.846H90.2294V113.925H90.3866V114.004H90.5438V114.082H90.701V114.161H90.8582V114.239H90.9368V114.318H91.094V114.397H91.2512V114.475H91.4084V114.554H91.5656V114.632H91.7228V114.711H91.88V114.79H92.0372V114.868H92.1944V114.947H92.2729V115.025H92.4301V115.104H92.5873V115.183H92.7445V115.261H92.8231V115.34H92.9803V115.418H93.1375V115.497H93.2947V115.576H93.3733V115.654H93.5305V115.733H93.6877V115.811H93.8449V115.89H94.0021V115.969H94.0807V116.047H94.2379V116.126H94.3951V116.204H94.5523V116.283H94.6309V116.362H94.7881V116.44H94.8667V116.519H95.0238V116.597H95.181V116.676H95.2596V116.755H95.4168V116.833H95.574V116.912H95.6526V116.99H95.8098V117.069H95.967V117.148H96.0456V117.226H96.2028V117.305H96.36V117.383H96.4386V117.462H96.5958V117.54H96.753V117.619H96.8316V117.698H96.9888V117.776H97.0674V117.855H97.2246V117.933H97.3032V118.012H97.4604V118.091H97.539V118.169H97.6961V118.248H97.8533V118.326H97.9319V118.405H98.0891V118.484H98.1677V118.562H98.3249V118.641H98.4035V118.719H98.5607V118.798H98.6393V118.877H98.7965V118.955H98.8751V119.034H99.0323V119.112H99.1109V119.191H99.2681V119.27H99.3467V119.348H99.5039V119.427H99.5825V119.505H99.7397V119.584H99.8183V119.663H99.9755V119.741H100.054V119.82H100.133V119.898H100.29V119.977H100.368V120.056H100.526V120.134H100.604V120.213H100.761V120.291H100.84V120.37H100.997V120.449H101.076V120.527H101.154V120.606H101.312V120.684H101.39V120.763H101.547V120.842H101.626V120.92H101.705V120.999H101.862V121.077H101.94V121.156H102.019V121.235H102.176V121.313H102.255V121.392H102.333V121.47H102.491V121.549H102.569V121.628H102.648V121.706H102.805V121.785H102.884V121.863H103.041V121.942H103.119V122.021H103.198V122.099H103.355V122.178H103.434V122.256H103.512V122.335H103.67V122.414H103.748V122.492H103.827V122.571H103.905V122.649H104.063V122.728H104.141V122.807H104.22V122.885H104.298V122.964H104.455V123.042H104.534V123.121H104.613V123.199H104.77V123.278H104.848V123.357H104.927V123.435H105.006V123.514H105.163V123.592H105.241V123.671H105.32V123.75H105.399V123.828H105.556V123.907H105.634V123.985H105.713V124.064H105.792V124.143H105.949V124.221H106.027V124.3H106.106V124.378H106.185V124.457H106.263V124.536H106.42V124.614H106.499V124.693H106.578V124.771H106.656V124.85H106.735V124.929H106.892V125.007H106.971V125.086H107.049V125.164H107.128V125.243H107.206V125.322H107.285V125.4H107.442V125.479H107.521V125.557H107.599V125.636H107.678V125.715H107.757V125.793H107.914V125.872H107.992V125.95H108.071V126.029H108.15V126.108H108.228V126.186H108.307V126.265H108.385V126.343H108.464V126.422H108.621V126.501H108.7V126.579H108.778V126.658H108.857V126.736H108.936V126.815H109.014V126.894H109.093V126.972H109.171V127.051H109.329V127.129H109.407V127.208H109.486V127.287H109.564V127.365H109.643V127.444H109.721V127.522H109.8V127.601H109.879V127.68H109.957V127.758H110.114V127.837H110.193V127.915H110.272V127.994H110.35V128.073H110.429V128.151H110.507V128.23H110.586V128.308H110.665V128.387H110.743V128.465H110.822V128.544H110.9V128.623H110.979V128.701H111.058V128.78H111.136V128.858H111.215V128.937H111.372V129.016H111.451V129.094H111.529V129.173H111.608V129.251H111.686V129.33H111.765V129.409H111.844V129.487H111.922V129.566H112.001V129.644H112.079V129.723H112.158V129.802H112.237V129.88H112.315V129.959H112.394V130.037H112.472V130.116H112.551V130.195H112.63V130.273H112.708V130.352H112.787V130.43H112.865V130.509H112.944V130.588H113.023V130.666H113.101V130.745H113.18V130.823H113.258V130.902H113.337V130.981H113.416V131.059H113.494V131.138H113.573V131.216H113.651V131.295H113.73V131.374H113.809V131.452H113.887V131.531H113.966V131.609H114.044V131.688H114.123V131.767H114.202V131.845H114.28V131.924H114.359V132.002H114.437V132.081H114.516V132.16H114.595V132.238H114.673V132.317H114.752V132.395H114.83V132.474H114.909V132.553H114.988V132.631H115.066V132.71H115.145V132.788H115.223V132.867H115.302V132.946H115.38V133.103H115.459V133.181H115.538V133.26H115.616V133.339H115.695V133.417H115.773V133.496H115.852V133.574H115.931V133.653H116.009V133.731H116.088V133.81H116.166V133.889H116.245V133.967H116.324V134.046H116.402V134.124H116.481V134.203H116.559V134.282H116.638V134.36H116.717V134.439H116.795V134.517H116.874V134.596H116.952V134.675H117.031V134.753H117.11V134.832H117.188V134.989H117.267V135.068H117.345V135.146H117.424V135.225H117.503V135.303H117.581V135.382H117.66V135.461H117.738V135.539H117.817V135.618H117.896V135.696H117.974V135.775H118.053V135.854H118.131V135.932H118.21V136.011H118.289V136.089H118.367V136.168H118.446V136.325H118.524V136.404H118.603V136.482H118.682V136.561H118.76V136.64H118.839V136.718H118.917V136.797H118.996V136.875H119.075V136.954H119.153V137.033H119.232V137.111H119.31V137.268H119.389V137.347H119.468V137.426H119.546V137.504H119.625V137.583H119.703V137.661H119.782V137.74H119.861V137.819H119.939V137.897H120.018V137.976H120.096V138.054H120.175V138.212H120.254V138.29H120.332V138.369H120.411V138.447H120.489V138.526H120.568V138.605H120.646V138.683H120.725V138.762H120.804V138.84H120.882V138.997H120.961V139.076H121.039V139.155H121.118V139.233H121.197V139.312H121.275V139.39H121.354V139.469H121.432V139.548H121.511V139.705H121.59V139.783H121.668V139.862H121.747V139.941H121.825V140.019H121.904V140.098H121.983V140.176H122.061V140.255H122.14V140.412H122.218V140.491H122.297V140.569H122.376V140.648H122.454V140.727H122.533V140.805H122.611V140.884H122.69V141.041H122.769V141.12H122.847V141.198H122.926V141.277H123.004V141.355H123.083V141.434H123.162V141.513H123.24V141.67H123.319V141.748H123.397V141.827H123.476V141.906H123.555V141.984H123.633V142.063H123.712V142.141H123.79V142.299H123.869V142.377H123.948V142.456H124.026V142.534H124.105V142.613H124.183V142.692H124.262V142.849H124.341V142.927H124.419V143.006H124.498V143.085H124.576V143.163H124.655V143.32H124.734V143.399H124.812V143.478H124.891V143.556H124.969V143.635H125.048V143.713H125.127V143.871H125.205V143.949H125.284V144.028H125.362V144.106H125.441V144.185H125.52V144.264H125.598V144.421H125.677V144.499H125.755V144.578H125.834V144.656H125.912V144.735H125.991V144.892H126.07V144.971H126.148V145.049H126.227V145.128H126.305V145.207H126.384V145.364H126.463V145.442H126.541V145.521H126.62V145.6H126.698V145.678H126.777V145.835H126.856V145.914H126.934V145.993H127.013V146.071H127.091V146.15H127.17V146.307H127.249V146.386H127.327V146.464H127.406V146.543H127.484V146.7H127.563V146.779H127.642V146.857H127.72V146.936H127.799V147.014H127.877V147.172H127.956V147.25H128.035V147.329H128.113V147.407H128.192V147.565H128.27V147.643H128.349V147.722H128.428V147.8H128.506V147.879H128.585V148.036H128.663V148.115H128.742V148.193H128.821V148.272H128.899V148.429H128.978V148.508H129.056V148.586H129.135V148.665H129.214V148.822H129.292V148.901H129.371V148.979H129.449V149.058H129.528V149.215H129.607V149.294H129.685V149.372H129.764V149.451H129.842V149.608H129.921V149.687H130V149.765H130.078V149.844H130.157V150.001H130.235V150.08H130.314V150.158H130.393V150.237H130.471V150.394H130.55V150.473H130.628V150.551H130.707V150.63H130.786V150.787H130.864V150.866H130.943V150.944H131.021V151.023H131.1V151.18H131.178V151.259H131.257V151.337H131.336V151.494H131.414V151.573H131.493V151.652H131.571V151.73H131.65V151.887H131.729V151.966H131.807V152.045H131.886V152.123H131.964V152.28H132.043V152.359H132.122V152.438H132.2V152.595H132.279V152.673H132.357V152.752H132.436V152.831H132.515V152.988H132.593V153.066H132.672V153.145H132.75V153.302H132.829V153.381H132.908V153.459H132.986V153.538H133.065V153.695H133.143V153.774H133.222V153.852H133.301V154.01H133.379V154.088H133.458V154.167H133.536V154.324H133.615V154.403H133.694V154.481H133.772V154.56H133.851V154.717H133.929V154.796H134.008V154.874H134.087V155.031H134.165V155.11H134.244V155.188H134.322V155.346H134.401V155.424H134.48V155.503H134.558V155.66H134.637V155.739H134.715V155.817H134.794V155.896H134.873V156.053H134.951V156.132H135.03V156.21H135.108V156.367H135.187V156.446H135.266V156.525H135.344V156.682H135.423V156.76H135.501V156.839H135.58V156.996H135.659V157.075H135.737V157.153H135.816V157.311H135.894V157.389H135.973V157.468H136.052V157.625H136.13V157.704H136.209V157.782H136.287V157.939H136.366V158.018H136.445V158.097H136.523V158.254H136.602V158.332H136.68V158.411H136.759V158.568H136.837V158.647H136.916V158.725H136.995V158.883H137.073V158.961H137.152V159.04H137.23V159.197H137.309V159.276H137.388V159.354H137.466V159.511H137.545V159.59H137.623V159.669H137.702V159.826H137.781V159.904H137.859V159.983H137.938V160.14H138.016V160.219H138.095V160.297H138.174V160.454H138.252V160.533H138.331V160.612H138.409V160.769H138.488V160.847H138.567V160.926H138.645V161.083H138.724V161.162H138.802V161.24H138.881V161.398H138.96V161.476H139.038V161.555H139.117V161.712H139.195V161.791H139.274V161.869H139.353V162.026H139.431V162.105H139.51V162.262H139.588V162.341H139.667V162.419H139.746V162.577H139.824V162.655H139.903V162.734H139.981V162.891H140.06V162.97H140.139V163.048H140.217V163.205H140.296V163.284H140.374V163.363H140.453V163.52H140.532V163.598H140.61V163.756H140.689V163.834H140.767V163.913H140.846V164.07H140.925V164.149H141.003V164.227H141.082V164.384H141.16V164.463H141.239V164.542H141.318V164.699H141.396V164.777H141.475V164.856H141.553V165.013H141.632V165.092H141.71V165.249H141.789V165.328H141.868V165.406H141.946V165.563H142.025V165.642H142.103V165.72H142.182V165.878H142.261V165.956H142.339V166.035H142.418V166.192H142.496V166.271H142.575V166.428H142.654V166.506H142.732V166.585H142.811V166.742H142.889V166.821H142.968V166.899H143.047V167.057H143.125V167.135H143.204V167.214H143.282V167.371H143.361V167.45H143.44V167.607H143.518V167.685H143.597V167.764H143.675V167.921H143.754V168H143.833V168.078H143.911V168.236H143.99V168.314H144.068V168.393H144.147V168.55H144.226V168.629H144.304V168.786H144.383V168.864H144.461V168.943H144.54V169.1H144.619V169.179H144.697V169.257H144.776V169.415H144.854V169.493H144.933V169.572H145.012V169.729H145.09V169.808H145.169V169.965H145.247V170.043H145.326V170.122H145.405V170.279H145.483V170.358H145.562V170.436H145.64V170.594H145.719V170.672H145.798V170.751H145.876V170.908H145.955V170.987H146.033V171.065H146.112V171.222H146.191V171.301H146.269V171.458H146.348V171.537H146.426V171.615H146.505V171.772H146.584V171.851H146.662V171.93H146.741V172.087H146.819V172.165H146.898V172.244H146.977V172.401H147.055V172.48H147.134V172.558H147.212V172.716H147.291V172.794H147.369V172.951H147.448V173.03H147.527V173.109H147.605V173.266H147.684V173.344H147.762V173.423H147.841V173.58H147.92V173.659H147.998V173.737H148.077V173.895H148.155V173.973H148.234V174.052H148.313V174.209H148.391V174.288H148.47V174.366H148.548V174.523H148.627V174.602H148.706V174.681H148.784V174.838H148.863V174.916H148.941V174.995H149.02V175.152H149.099V175.231H149.177V175.309H149.256V175.467H149.334V175.545H149.413V175.624H149.492V175.781H149.57V175.86H149.649V175.938H149.727V176.095H149.806V176.174H149.885V176.253H149.963V176.41H150.042V176.488H150.12V176.567H150.199V176.724H150.278V176.803H150.356V176.881H150.435V177.038H150.513V177.117H150.592V177.196H150.671V177.353H150.749V177.431H150.828V177.51H150.906V177.667H150.985V177.746H151.064V177.824H151.142V177.982H151.221V178.06H151.299V178.139H151.378V178.217H151.457V178.375H151.535V178.453H151.614V178.532H151.692V178.689H151.771V178.768H151.85V178.846H151.928V179.003H152.007V179.082H152.085V179.161H152.164V179.318H152.243V179.396H152.321V179.475H152.4V179.554H152.478V179.711H152.557V179.789H152.635V179.868H152.714V180.025H152.793V180.104H152.871V180.182H152.95V180.261H153.028V180.418H153.107V180.497H153.186V180.575H153.264V180.733H153.343V180.811H153.421V180.89H153.5V180.968H153.579V181.126H153.657V181.204H153.736V181.283H153.814V181.44H153.893V181.519H153.972V181.597H154.05V181.676H154.129V181.833H154.207V181.911H154.286V181.99H154.365V182.069H154.443V182.226H154.522V182.304H154.6V182.383H154.679V182.462H154.758V182.619H154.836V182.697H154.915V182.776H154.993V182.855H155.072V183.012H155.151V183.09H155.229V183.169H155.308V183.248H155.386V183.405H155.465V183.483H155.544V183.562H155.622V183.641H155.701V183.798H155.779V183.876H155.858V183.955H155.937V184.034H156.015V184.191H156.094V184.269H156.172V184.348H156.251V184.427H156.33V184.584H156.408V184.662H156.487V184.741H156.565V184.82H156.644V184.898H156.723V185.055H156.801V185.134H156.88V185.213H156.958V185.291H157.037V185.448H157.116V185.527H157.194V185.606H157.273V185.684H157.351V185.763H157.43V185.92H157.509V185.999H157.587V186.077H157.666V186.156H157.744V186.234H157.823V186.392H157.901V186.47H157.98V186.549H158.059V186.627H158.137V186.706H158.216V186.863H158.294V186.942H158.373V187.02H158.452V187.099H158.53V187.177H158.609V187.335H158.687V187.413H158.766V187.492H158.845V187.57H158.923V187.649H159.002V187.728H159.08V187.885H159.159V187.963H159.238V188.042H159.316V188.121H159.395V188.199H159.473V188.278H159.552V188.435H159.631V188.514H159.709V188.592H159.788V188.671H159.866V188.749H159.945V188.828H160.024V188.907H160.102V189.064H160.181V189.142H160.259V189.221H160.338V189.3H160.417V189.378H160.495V189.457H160.574V189.535H160.652V189.693H160.731V189.771H160.81V189.85H160.888V189.928H160.967V190.007H161.045V190.086H161.124V190.164H161.203V190.243H161.281V190.4H161.36V190.479H161.438V190.557H161.517V190.636H161.596V190.714H161.674V190.793H161.753V190.872H161.831V190.95H161.91V191.029H161.989V191.186H162.067V191.265H162.146V191.343H162.224V191.422H162.303V191.5H162.382V191.579H162.46V191.658H162.539V191.736H162.617V191.815H162.696V191.893H162.775V191.972H162.853V192.129H162.932V192.208H163.01V192.286H163.089V192.365H163.167V192.444H163.246V192.522H163.325V192.601H163.403V192.679H163.482V192.758H163.56V192.836H163.639V192.915H163.718V192.994H163.796V193.072H163.875V193.151H163.953V193.229H164.032V193.387H164.111V193.465H164.189V193.544H164.268V193.622H164.346V193.701H164.425V193.78H164.504V193.858H164.582V193.937H164.661V194.015H164.739V194.094H164.818V194.173H164.897V194.251H164.975V194.33H165.054V194.408H165.132V194.487H165.211V194.566H165.29V194.644H165.368V194.723H165.447V194.801H165.525V194.88H165.604V194.959H165.683V195.037H165.761V195.116H165.84V195.194H165.918V195.273H165.997V195.352H166.076V195.43H166.154V195.509H166.233V195.587H166.311V195.666H166.39V195.745H166.469V195.823H166.547V195.902H166.626V195.98H166.704V196.059H166.783V196.138H166.862V196.216H166.94V196.295H167.019V196.373H167.097V196.452H167.176V196.531H167.255V196.609H167.333V196.688H167.412V196.766H167.49V196.845H167.569V196.924H167.648V197.002H167.726V197.081H167.805V197.159H167.883V197.238H167.962V197.317H168.041V197.395H168.119V197.474H168.198V197.552H168.355V197.631H168.434V197.71H168.512V197.788H168.591V197.867H168.669V197.945H168.748V198.024H168.826V198.102H168.905V198.181H168.984V198.26H169.062V198.338H169.141V198.417H169.219V198.495H169.298V198.574H169.455V198.653H169.534V198.731H169.612V198.81H169.691V198.888H169.77V198.967H169.848V199.046H169.927V199.124H170.005V199.203H170.084V199.281H170.163V199.36H170.32V199.439H170.398V199.517H170.477V199.596H170.556V199.674H170.634V199.753H170.713V199.832H170.791V199.91H170.949V199.989H171.027V200.067H171.106V200.146H171.184V200.225H171.263V200.303H171.342V200.382H171.42V200.46H171.499V200.539H171.656V200.618H171.735V200.696H171.813V200.775H171.892V200.853H171.97V200.932H172.128V201.011H172.206V201.089H172.285V201.168H172.363V201.246H172.442V201.325H172.521V201.404H172.678V201.482H172.756V201.561H172.835V201.639H172.914V201.718H172.992V201.797H173.149V201.875H173.228V201.954H173.307V202.032H173.385V202.111H173.464V202.19H173.621V202.268H173.7V202.347H173.778V202.425H173.857V202.504H174.014V202.583H174.092V202.661H174.171V202.74H174.25V202.818H174.407V202.897H174.485V202.976H174.564V203.054H174.643V203.133H174.8V203.211H174.878V203.29H174.957V203.368H175.036V203.447H175.193V203.526H175.271V203.604H175.35V203.683H175.507V203.761H175.586V203.84H175.664V203.919H175.822V203.997H175.9V204.076H175.979V204.154H176.136V204.233H176.215V204.312H176.293V204.39H176.372V204.469H176.529V204.547H176.608V204.626H176.686V204.705H176.843V204.783H176.922V204.862H177.079V204.94H177.158V205.019H177.236V205.098H177.394V205.176H177.472V205.255H177.551V205.333H177.708V205.412H177.787V205.491H177.944V205.569H178.022V205.648H178.101V205.726H178.258V205.805H178.337V205.884H178.494V205.962H178.573V206.041H178.651V206.119H178.808V206.198H178.887V206.277H179.044V206.355H179.123V206.434H179.28V206.512H179.358V206.591H179.516V206.67H179.594V206.748H179.751V206.827H179.83V206.905H179.987V206.984H180.066V207.063H180.144V207.141H180.302V207.22H180.38V207.298H180.537V207.377H180.616V207.456H180.773V207.534H180.93V207.613H181.009V207.691H181.166V207.77H181.245V207.849H181.402V207.927H181.481V208.006H181.638V208.084H181.716V208.163H181.874V208.242H182.031V208.32H182.109V208.399H182.267V208.477H182.345V208.556H182.502V208.634H182.581V208.713H182.738V208.792H182.895V208.87H182.974V208.949H183.131V209.027H183.288V209.106H183.367V209.185H183.524V209.263H183.681V209.342H183.76V209.42H183.917V209.499H184.074V209.578H184.153V209.656H184.31V209.735H184.467V209.813H184.546V209.892H184.703V209.971H184.86V210.049H185.017V210.128H185.096V210.206H185.253V210.285H185.41V210.364H185.568V210.442H185.725V210.521H185.803V210.599H185.961V210.678H186.118V210.757H186.275V210.835H186.354V210.914H186.511V210.992H186.668V211.071H186.825V211.15H186.982V211.228H187.14V211.307H187.297V211.385H187.454V211.464H187.533V211.543H187.69V211.621H187.847V211.7H188.004V211.778H188.161V211.857H188.319V211.936H188.476V212.014H188.633V212.093H188.79V212.171H188.947V212.25H189.105V212.329H189.262V212.407H189.419V212.486H189.576V212.564H189.733V212.643H189.891V212.722H190.048V212.8H190.205V212.879H190.362V212.957H190.519V213.036H190.676V213.115H190.834V213.193H190.991V213.272H191.227V213.35H191.384V213.429H191.541V213.508H191.698V213.586H191.855V213.665H192.091V213.743H192.248V213.822H192.406V213.9H192.563V213.979H192.72V214.058H192.956V214.136H193.113V214.215H193.27V214.293H193.427V214.372H193.663V214.451H193.82V214.529H194.056V214.608H194.213V214.686H194.371V214.765H194.606V214.844H194.764V214.922H194.921V215.001H195.157V215.079H195.314V215.158H195.549V215.237H195.707V215.315H195.942V215.394H196.1V215.472H196.335V215.551H196.571V215.63H196.728V215.708H196.964V215.787H197.121V215.865H197.357V215.944H197.514V216.023H197.75V216.101H197.986V216.18H198.143V216.258H198.379V216.337H198.615V216.416H198.851V216.494H199.086V216.573H199.322V216.651H199.479V216.73H199.715V216.809H199.951V216.887H200.187V216.966H200.423V217.044H200.658V217.123H200.894V217.202H201.13V217.28H201.366V217.359H201.601V217.437H201.837V217.516H202.073V217.595H202.309V217.673H202.545V217.752H202.859V217.83H203.095V217.909H203.331V217.988H203.645V218.066H203.881V218.145H204.117V218.223H204.431V218.302H204.667V218.381H204.981V218.459H205.217V218.538H205.453V218.616H205.767V218.695H206.081V218.774H206.396V218.852H206.632V218.931H206.946V219.009H207.26V219.088H207.575V219.167H207.889V219.245H208.125V219.324H208.439V219.402H208.754V219.481H209.147V219.559H209.461V219.638H209.776V219.717H210.09V219.795H210.483V219.874H210.797V219.952H211.112V220.031H211.505V220.11H211.819V220.188H212.212V220.267H212.605V220.345H212.998V220.424H213.391V220.503H213.705V220.581H214.098V220.66H214.57V220.738H214.963V220.817H215.356V220.896H215.828V220.974H216.221V221.053H216.692V221.131H217.085V221.21H217.635V221.289H218.107V221.367H218.578V221.446H219.05V221.524H219.6V221.603H220.072V221.682H220.622V221.76H221.251V221.839H221.801V221.917H222.351V221.996H222.98V222.075H223.609V222.153H224.237V222.232H224.945V222.31H225.652V222.389H226.36V222.468H227.146V222.546H228.01V222.625H228.875V222.703H229.739V222.782H230.84V222.861H231.94V222.939H233.04V223.018H234.455V223.096H236.027V223.175H237.835V223.254H240.271V223.332H243.022V223.411H244.987V223.489H246.402V223.568H247.895V223.647H248.917V223.725H249.939V223.804H250.96V223.882H251.825V223.961H252.611V224.04H253.397V224.118H254.183V224.197H254.89V224.275H255.519V224.354H256.148V224.433H256.777V224.511H257.405V224.59H258.034V224.668H258.506V224.747H259.056V224.825H259.606V224.904H260.078V224.983H260.628V225.061H261.099V225.14H261.571V225.218H262.043V225.297H262.436V225.376H262.907V225.454H263.379V225.533H263.772V225.611H264.165V225.69H264.558V225.769H264.951V225.847H265.344V225.926H265.737V226.004H266.13V226.083H266.523V226.162H266.837V226.24H267.23V226.319H267.544V226.397H267.859V226.476H268.252V226.555H268.566V226.633H268.881V226.712H269.274V226.79H269.588V226.869H269.824V226.948H270.138V227.026H270.452V227.105H270.767V227.183H271.081V227.262H271.396V227.341H271.631V227.419H271.946V227.498H272.26V227.576H272.496V227.655H272.81V227.734H273.046V227.812H273.361V227.891H273.596V227.969H273.832V228.048H274.147V228.127H274.382V228.205H274.697V228.284H274.933V228.362H275.168V228.441H275.404V228.52H275.64V228.598H275.876V228.677H276.111V228.755H276.347V228.834H276.583V228.913H276.819V228.991H277.133V229.07H277.29V229.148H277.526V229.227H277.762V229.306H277.998V229.384H278.234V229.463H278.391V229.541H278.627V229.62H278.862V229.699H279.098V229.777H279.334V229.856H279.491V229.934H279.727V230.013H279.884V230.091H280.12V230.17H280.277V230.249H280.513V230.327H280.749V230.406H280.906V230.484H281.142V230.563H281.299V230.642H281.535V230.72H281.692V230.799H281.928V230.877H282.085V230.956H282.242V231.035H282.478V231.113H282.635V231.192H282.792V231.27H283.028V231.349H283.185V231.428H283.342V231.506H283.578V231.585H283.735V231.663H283.893V231.742H284.05V231.821H284.286V231.899H284.443V231.978H284.6V232.056H284.757V232.135H284.914V232.214H285.072V232.292H285.229V232.371H285.465V232.449H285.622V232.528H285.779V232.607H285.936V232.685H286.093V232.764H286.25V232.842H286.408V232.921H286.565V233H286.722V233.078H286.879V233.157H287.036V233.235H287.194V233.314H287.351V233.393H287.508V233.471H287.665V233.55H287.822V233.628H287.98V233.707H288.137V233.786H288.215V233.864H288.373V233.943H288.53V234.021H288.687V234.1H288.844V234.179H289.001V234.257H289.08V234.336H289.237V234.414H289.394V234.493H289.552V234.572H289.709V234.65H289.787V234.729H289.945V234.807H290.102V234.886H290.259V234.965H290.338V235.043H290.495V235.122H290.652V235.2H290.731V235.279H290.888V235.358H291.045V235.436H291.124V235.515H291.281V235.593H291.438V235.672H291.595V235.75H291.674V235.829H291.831V235.908H291.909V235.986H292.067V236.065H292.145V236.143H292.302V236.222H292.46V236.301H292.538V236.379H292.695V236.458H292.774V236.536H292.931V236.615H293.01V236.694H293.167V236.772H293.324V236.851H293.403V236.929H293.56V237.008H293.639V237.087H293.717V237.165H293.874V237.244H293.953V237.322H294.11V237.401H294.189V237.48H294.346V237.558H294.425V237.637H294.582V237.715H294.66V237.794H294.818V237.873H294.896V237.951H295.053V238.03H295.132V238.108H295.211V238.187H295.368V238.266H295.446V238.344H295.525V238.423H295.682V238.501H295.761V238.58H295.839V238.659H295.997V238.737H296.075V238.816H296.232V238.894H296.311V238.973H296.39V239.052H296.547V239.13H296.625V239.209H296.704V239.287H296.783V239.366H296.94V239.445H297.018V239.523H297.097V239.602H297.254V239.68H297.333V239.759H297.411V239.838H297.49V239.916H297.647V239.995H297.726V240.073H297.804V240.152H297.883V240.231H298.04V240.309H298.119V240.388H298.197V240.466H298.276V240.545H298.433V240.624H298.512V240.702H298.59V240.781H298.669V240.859H298.747V240.938H298.826V241.016H298.983V241.095H299.062V241.174H299.14V241.252H299.219V241.331H299.298V241.409H299.455V241.488H299.533V241.567H299.612V241.645H299.691V241.724H299.769V241.802H299.848V241.881H299.926V241.96H300.005V242.038H300.084V242.117H300.241V242.195H300.319V242.274H300.398V242.353H300.477V242.431H300.555V242.51H300.634V242.588H300.712V242.667H300.791V242.746H300.87V242.824H300.948V242.903H301.027V242.981H301.105V243.06H301.263V243.139H301.341V243.217H301.42V243.296H301.498V243.374H301.577V243.453H301.656V243.532H301.734V243.61H301.813V243.689H301.891V243.767H301.97V243.846H302.048V243.925H302.127V244.003H302.206V244.082H302.284V244.16H302.363V244.239H302.441V244.318H302.52V244.396H302.599V244.475H302.677V244.553H302.756V244.632H302.834V244.711H302.913V244.789H302.992V244.868H303.07V244.946H303.149V245.025H303.227V245.182H303.306V245.261H303.385V245.339H303.463V245.418H303.542V245.497H303.62V245.575H303.699V245.654H303.778V245.732H303.856V245.811H303.935V245.89H304.013V246.047H304.092V246.125H304.171V246.204H304.249V246.282H304.328V246.361H304.406V246.44H304.485V246.518H304.564V246.597H304.642V246.754H304.721V246.833H304.799V246.911H304.878V246.99H304.957V247.068H305.035V247.147H305.114V247.304H305.192V247.383H305.271V247.461H305.35V247.54H305.428V247.619H305.507V247.776H305.585V247.854H305.664V247.933H305.743V248.012H305.821V248.169H305.9V248.247H305.978V248.326H306.057V248.405H306.136V248.562H306.214V248.64H306.293V248.719H306.371V248.798H306.45V248.955H306.529V249.033H306.607V249.112H306.686V249.269H306.764V249.348H306.843V249.426H306.922V249.584H307V249.662H307.079V249.741H307.157V249.898H307.236V249.977H307.315V250.055H307.393V250.212H307.472V250.291H307.55V250.448H307.629V250.527H307.707V250.605H307.786V250.763H307.865V250.841H307.943V250.998H308.022V251.077H308.1V251.234H308.179V251.313H308.258V251.391H308.336V251.548H308.415V251.627H308.493V251.784H308.572V251.941H308.651V252.02H308.729V252.177H308.808V252.256H308.886V252.413H308.965V252.492H309.044V252.649H309.122V252.727H309.201V252.885H309.279V253.042H309.358V253.12H309.437V253.278H309.515V253.356H309.594V253.513H309.672V253.671H309.751V253.749H309.83V253.906H309.908V254.064H309.987V254.142H310.065V254.299H310.144V254.457H310.223V254.614H310.301V254.692H310.38V254.85H310.458V255.007H310.537V255.164H310.616V255.243H310.694V255.4H310.773V255.557H310.851V255.714H310.93V255.871H311.009V256.029H311.087V256.186H311.166V256.264H311.244V256.422H311.323V256.579H311.402V256.736H311.48V256.893H311.559V257.05H311.637V257.207H311.716V257.365H311.795V257.522H311.873V257.679H311.952V257.836H312.03V258.072H312.109V258.229H312.188V258.386H312.266V258.544H312.345V258.701H312.423V258.858H312.502V259.094H312.581V259.251H312.659V259.408H312.738V259.565H312.816V259.801H312.895V259.958H312.974V260.116H313.052V260.351H313.131V260.509H313.209V260.744H313.288V260.902H313.366V261.137H313.445V261.295H313.524V261.53H313.602V261.688H313.681V261.923H313.759V262.159H313.838V262.395H313.917V262.552H313.995V262.788H314.074V263.024H314.152V263.259H314.231V263.495H314.31V263.731H314.388V263.967H314.467V264.203H314.545V264.438H314.624V264.674H314.703V264.91H314.781V265.224H314.86V265.46H314.938V265.775H315.017V266.01H315.096V266.325H315.174V266.561H315.253V266.875H315.331V267.189H315.41V267.504H315.489V267.818H315.567V268.132H315.646V268.525H315.724V268.84H315.803V269.233H315.882V269.626H315.96V270.019H316.039V270.412H316.117V270.883H316.196V271.355H316.275V271.827H316.353V272.377H316.432V272.927H316.51V273.556H316.589V274.263H316.668V275.206H316.746V276.464H316.825V278.35" fill="url(#paint1_radial_163_15548)"/>
<path d="M0 278.35V176.724H0.157194V176.646H0.392985V176.567H0.707373V176.488H0.943165V176.41H1.25755V176.331H1.57194V176.253H1.88633V176.174H2.20072V176.095H2.51511V176.017H2.82949V175.938H3.14388V175.86H3.45827V175.781H3.77266V175.702H4.08705V175.624H4.48003V175.545H4.79442V175.467H5.10881V175.388H5.50179V175.309H5.81618V175.231H6.20917V175.152H6.60215V175.074H6.91654V174.995H7.30953V174.916H7.70251V174.838H8.0955V174.759H8.48848V174.681H8.88147V174.602H9.27445V174.523H9.74603V174.445H10.139V174.366H10.532V174.288H11.0036V174.209H11.4752V174.13H11.8682V174.052H12.3397V173.973H12.8113V173.895H13.2829V173.816H13.7545V173.737H14.2261V173.659H14.7762V173.58H15.2478V173.502H15.798V173.423H16.3482V173.344H16.8984V173.266H17.4485V173.187H17.9987V173.109H18.6275V173.03H19.2563V172.951H19.8851V172.873H20.5138V172.794H21.1426V172.716H21.9286V172.637H22.636V172.558H23.3433V172.48H24.2079V172.401H24.9939V172.323H25.8584V172.244H26.8802V172.165H27.902V172.087H28.9237V172.008H30.1813V171.93H31.5174V171.851H33.2466V171.772H35.4473V171.694H40.3989V171.615H40.6347V171.694H45.3505V171.772H47.5512V171.851H49.1232V171.93H50.5379V172.008H51.7169V172.087H52.8172V172.165H53.839V172.244H54.7035V172.323H55.4895V172.401H56.3541V172.48H57.1401V172.558H57.8474V172.637H58.5548V172.716H59.2622V172.794H59.891V172.873H60.5983V172.951H61.1485V173.03H61.6987V173.109H62.2489V173.187H62.799V173.266H63.4278V173.344H63.978V173.423H64.4496V173.502H64.9212V173.58H65.3927V173.659H65.8643V173.737H66.4145V173.816H66.8861V173.895H67.3577V173.973H67.7507V174.052H68.2222V174.13H68.6152V174.209H69.0082V174.288H69.4798V174.366H69.8728V174.445H70.2658V174.523H70.7374V174.602H71.1303V174.681H71.4447V174.759H71.8377V174.838H72.2307V174.916H72.5451V174.995H72.9381V175.074H73.3311V175.152H73.6454V175.231H74.0384V175.309H74.4314V175.388H74.7458V175.467H75.0602V175.545H75.3746V175.624H75.7676V175.702H76.0819V175.781H76.3963V175.86H76.7107V175.938H77.0251V176.017H77.3395V176.095H77.6539V176.174H77.9683V176.253H78.3613V176.331H78.5971V176.41H78.9114V176.488H79.2258V176.567H79.4616V176.646H79.776V176.724H80.0904V176.803H80.3262V176.881H80.6406V176.96H80.955V177.038H81.1908V177.117H81.5051V177.196H81.8195V177.274H82.0553V177.353H82.3697V177.431H82.6055V177.51H82.8413V177.589H83.1557V177.667H83.3915V177.746H83.6273V177.824H83.9417V177.903H84.1774V177.982H84.4132V178.06H84.649V178.139H84.9634V178.217H85.1992V178.296H85.435V178.375H85.7494V178.453H85.9852V178.532H86.221V178.61H86.4568V178.689H86.6926V178.768H86.9283V178.846H87.1641V178.925H87.3999V179.003H87.6357V179.082H87.8715V179.161H88.1073V179.239H88.3431V179.318H88.5789V179.396H88.8147V179.475H89.0505V179.554H89.2863V179.632H89.522V179.711H89.6792V179.789H89.915V179.868H90.1508V179.947H90.3866V180.025H90.5438V180.104H90.7796V180.182H91.0154V180.261H91.1726V180.34H91.4084V180.418H91.6442V180.497H91.88V180.575H92.0371V180.654H92.2729V180.733H92.5087V180.811H92.7445V180.89H92.9017V180.968H93.1375V181.047H93.3733V181.126H93.5305V181.204H93.7663V181.283H93.9235V181.361H94.0807V181.44H94.3165V181.519H94.4737V181.597H94.7094V181.676H94.8666V181.754H95.1024V181.833H95.2596V181.912H95.4954V181.99H95.6526V182.069H95.8884V182.147H96.0456V182.226H96.2814V182.304H96.4386V182.383H96.6744V182.462H96.8316V182.54H97.0674V182.619H97.2246V182.697H97.3818V182.776H97.6175V182.855H97.7747V182.933H97.9319V183.012H98.0891V183.09H98.3249V183.169H98.4821V183.248H98.6393V183.326H98.7965V183.405H99.0323V183.483H99.1895V183.562H99.3467V183.641H99.5825V183.719H99.7397V183.798H99.8969V183.876H100.054V183.955H100.29V184.034H100.447V184.112H100.604V184.191H100.761V184.269H100.919V184.348H101.154V184.427H101.312V184.505H101.469V184.584H101.626V184.662H101.783V184.741H101.94V184.82H102.098V184.898H102.255V184.977H102.412V185.055H102.569V185.134H102.805V185.213H102.962V185.291H103.119V185.37H103.277V185.448H103.434V185.527H103.591V185.606H103.748V185.684H103.905V185.763H104.062V185.841H104.22V185.92H104.377V185.999H104.534V186.077H104.691V186.156H104.848V186.234H105.006V186.313H105.163V186.392H105.32V186.47H105.477V186.549H105.634V186.627H105.792V186.706H105.949V186.785H106.106V186.863H106.263V186.942H106.42V187.02H106.499V187.099H106.656V187.178H106.813V187.256H106.971V187.335H107.128V187.413H107.285V187.492H107.442V187.571H107.599V187.649H107.757V187.728H107.914V187.806H108.071V187.885H108.228V187.963H108.307V188.042H108.464V188.121H108.621V188.199H108.778V188.278H108.936V188.356H109.014V188.435H109.171V188.514H109.328V188.592H109.486V188.671H109.564V188.749H109.721V188.828H109.879V188.907H110.036V188.985H110.193V189.064H110.272V189.142H110.429V189.221H110.586V189.3H110.743V189.378H110.822V189.457H110.979V189.535H111.136V189.614H111.293V189.693H111.451V189.771H111.529V189.85H111.686V189.928H111.844V190.007H112.001V190.086H112.079V190.164H112.237V190.243H112.394V190.321H112.472V190.4H112.63V190.479H112.787V190.557H112.865V190.636H113.023V190.714H113.101V190.793H113.258V190.872H113.416V190.95H113.494V191.029H113.651V191.107H113.809V191.186H113.887V191.265H114.044V191.343H114.202V191.422H114.28V191.5H114.437V191.579H114.595V191.658H114.673V191.736H114.83V191.815H114.987V191.893H115.066V191.972H115.223V192.051H115.302V192.129H115.459V192.208H115.616V192.286H115.695V192.365H115.852V192.444H115.931V192.522H116.088V192.601H116.166V192.679H116.324V192.758H116.402V192.837H116.559V192.915H116.638V192.994H116.795V193.072H116.952V193.151H117.031V193.229H117.188V193.308H117.267V193.387H117.424V193.465H117.503V193.544H117.66V193.622H117.738V193.701H117.896V193.78H117.974V193.858H118.131V193.937H118.21V194.015H118.367V194.094H118.446V194.173H118.603V194.251H118.682V194.33H118.839V194.408H118.917V194.487H119.075V194.566H119.232V194.644H119.31V194.723H119.389V194.801H119.546V194.88H119.625V194.959H119.782V195.037H119.861V195.116H120.018V195.194H120.096V195.273H120.175V195.352H120.332V195.43H120.411V195.509H120.568V195.587H120.646V195.666H120.725V195.745H120.882V195.823H120.961V195.902H121.118V195.98H121.197V196.059H121.275V196.138H121.432V196.216H121.511V196.295H121.668V196.373H121.747V196.452H121.904V196.531H121.983V196.609H122.061V196.688H122.218V196.766H122.297V196.845H122.454V196.924H122.533V197.002H122.611V197.081H122.769V197.159H122.847V197.238H123.004V197.317H123.083V197.395H123.162V197.474H123.319V197.552H123.397V197.631H123.476V197.71H123.633V197.788H123.712V197.867H123.79V197.945H123.869V198.024H124.026V198.103H124.105V198.181H124.183V198.26H124.341V198.338H124.419V198.417H124.498V198.495H124.655V198.574H124.734V198.653H124.812V198.731H124.969V198.81H125.048V198.888H125.127V198.967H125.284V199.046H125.362V199.124H125.441V199.203H125.598V199.281H125.677V199.36H125.755V199.439H125.834V199.517H125.991V199.596H126.07V199.674H126.148V199.753H126.305V199.832H126.384V199.91H126.463V199.989H126.62V200.067H126.698V200.146H126.777V200.225H126.856V200.303H127.013V200.382H127.091V200.46H127.17V200.539H127.249V200.618H127.327V200.696H127.484V200.775H127.563V200.853H127.642V200.932H127.72V201.011H127.877V201.089H127.956V201.168H128.035V201.246H128.113V201.325H128.192V201.404H128.349V201.482H128.428V201.561H128.506V201.639H128.585V201.718H128.742V201.797H128.821V201.875H128.899V201.954H128.978V202.032H129.056V202.111H129.214V202.19H129.292V202.268H129.371V202.347H129.449V202.425H129.528V202.504H129.685V202.583H129.764V202.661H129.842V202.74H129.921V202.818H130.078V202.897H130.157V202.976H130.235V203.054H130.314V203.133H130.393V203.211H130.471V203.29H130.628V203.369H130.707V203.447H130.785V203.526H130.864V203.604H130.943V203.683H131.021V203.761H131.1V203.84H131.178V203.919H131.336V203.997H131.414V204.076H131.493V204.154H131.571V204.233H131.65V204.312H131.729V204.39H131.807V204.469H131.964V204.547H132.043V204.626H132.122V204.705H132.2V204.783H132.279V204.862H132.357V204.94H132.436V205.019H132.593V205.098H132.672V205.176H132.75V205.255H132.829V205.333H132.908V205.412H132.986V205.491H133.065V205.569H133.143V205.648H133.301V205.726H133.379V205.805H133.458V205.884H133.536V205.962H133.615V206.041H133.694V206.119H133.772V206.198H133.851V206.277H133.929V206.355H134.008V206.434H134.165V206.512H134.244V206.591H134.322V206.67H134.401V206.748H134.48V206.827H134.558V206.905H134.637V206.984H134.715V207.063H134.794V207.141H134.873V207.22H134.951V207.298H135.03V207.377H135.108V207.456H135.187V207.534H135.266V207.613H135.344V207.691H135.423V207.77H135.501V207.849H135.659V207.927H135.737V208.006H135.816V208.084H135.894V208.163H135.973V208.242H136.051V208.32H136.13V208.399H136.209V208.477H136.287V208.556H136.366V208.635H136.444V208.713H136.523V208.792H136.602V208.87H136.68V208.949H136.759V209.027H136.837V209.106H136.916V209.185H137.073V209.263H137.152V209.342H137.23V209.42H137.309V209.499H137.388V209.578H137.466V209.656H137.545V209.735H137.623V209.813H137.702V209.892H137.781V210.049H137.859V210.128H137.938V210.206H138.016V210.285H138.095V210.364H138.174V210.442H138.252V210.521H138.331V210.599H138.409V210.678H138.488V210.757H138.567V210.835H138.645V210.914H138.724V210.992H138.802V211.071H138.881V211.15H138.96V211.228H139.038V211.307H139.117V211.385H139.195V211.464H139.274V211.543H139.353V211.621H139.431V211.7H139.51V211.778H139.588V211.857H139.667V211.936H139.746V212.014H139.824V212.093H139.903V212.171H139.981V212.25H140.06V212.329H140.139V212.407H140.217V212.486H140.296V212.564H140.374V212.643H140.453V212.722H140.532V212.8H140.61V212.879H140.689V212.957H140.767V213.036H140.846V213.115H140.925V213.272H141.003V213.35H141.082V213.429H141.16V213.508H141.239V213.586H141.318V213.665H141.396V213.743H141.475V213.822H141.553V213.901H141.632V213.979H141.71V214.058H141.789V214.215H141.868V214.293H141.946V214.372H142.025V214.451H142.103V214.529H142.182V214.608H142.261V214.686H142.339V214.765H142.418V214.844H142.496V214.922H142.575V215.001H142.654V215.158H142.732V215.237H142.811V215.315H142.889V215.394H142.968V215.472H143.047V215.551H143.125V215.63H143.204V215.708H143.282V215.787H143.361V215.865H143.44V215.944H143.518V216.101H143.597V216.18H143.675V216.258H143.754V216.337H143.833V216.416H143.911V216.494H143.99V216.573H144.068V216.651H144.147V216.73H144.226V216.887H144.304V216.966H144.383V217.044H144.461V217.123H144.54V217.202H144.619V217.359H144.697V217.437H144.776V217.516H144.854V217.595H144.933V217.673H145.012V217.752H145.09V217.909H145.169V217.988H145.247V218.066H145.326V218.145H145.405V218.223H145.483V218.302H145.562V218.459H145.64V218.538H145.719V218.616H145.798V218.695H145.876V218.774H145.955V218.852H146.033V219.009H146.112V219.088H146.191V219.167H146.269V219.245H146.348V219.324H146.426V219.481H146.505V219.56H146.584V219.638H146.662V219.717H146.741V219.795H146.819V219.874H146.898V220.031H146.976V220.11H147.055V220.188H147.134V220.267H147.212V220.345H147.291V220.424H147.369V220.581H147.448V220.66H147.527V220.738H147.605V220.817H147.684V220.974H147.762V221.053H147.841V221.131H147.92V221.21H147.998V221.367H148.077V221.446H148.155V221.524H148.234V221.682H148.313V221.76H148.391V221.839H148.47V221.917H148.548V222.075H148.627V222.153H148.706V222.232H148.784V222.31H148.863V222.468H148.941V222.546H149.02V222.625H149.099V222.703H149.177V222.861H149.256V222.939H149.334V223.018H149.413V223.096H149.492V223.254H149.57V223.332H149.649V223.411H149.727V223.568H149.806V223.647H149.885V223.725H149.963V223.804H150.042V223.961H150.12V224.04H150.199V224.118H150.278V224.197H150.356V224.354H150.435V224.433H150.513V224.511H150.592V224.59H150.671V224.747H150.749V224.826H150.828V224.983H150.906V225.061H150.985V225.14H151.064V225.297H151.142V225.376H151.221V225.454H151.299V225.611H151.378V225.69H151.457V225.769H151.535V225.926H151.614V226.004H151.692V226.083H151.771V226.24H151.85V226.319H151.928V226.397H152.007V226.555H152.085V226.633H152.164V226.79H152.242V226.869H152.321V226.948H152.4V227.105H152.478V227.183H152.557V227.262H152.635V227.419H152.714V227.498H152.793V227.576H152.871V227.734H152.95V227.812H153.028V227.891H153.107V228.048H153.186V228.127H153.264V228.284H153.343V228.362H153.421V228.441H153.5V228.598H153.579V228.677H153.657V228.755H153.736V228.913H153.814V228.991H153.893V229.148H153.972V229.227H154.05V229.384H154.129V229.463H154.207V229.541H154.286V229.699H154.365V229.777H154.443V229.934H154.522V230.013H154.6V230.17H154.679V230.249H154.758V230.406H154.836V230.484H154.915V230.642H154.993V230.72H155.072V230.877H155.151V230.956H155.229V231.035H155.308V231.192H155.386V231.27H155.465V231.428H155.544V231.506H155.622V231.663H155.701V231.742H155.779V231.899H155.858V231.978H155.937V232.135H156.015V232.214H156.094V232.292H156.172V232.449H156.251V232.528H156.33V232.685H156.408V232.764H156.487V232.921H156.565V233H156.644V233.157H156.723V233.235H156.801V233.393H156.88V233.471H156.958V233.628H157.037V233.707H157.116V233.864H157.194V233.943H157.273V234.1H157.351V234.257H157.43V234.336H157.508V234.493H157.587V234.572H157.666V234.729H157.744V234.807H157.823V234.965H157.901V235.122H157.98V235.2H158.059V235.358H158.137V235.436H158.216V235.593H158.294V235.672H158.373V235.829H158.452V235.986H158.53V236.065H158.609V236.222H158.687V236.301H158.766V236.458H158.845V236.536H158.923V236.694H159.002V236.851H159.08V236.929H159.159V237.087H159.238V237.165H159.316V237.322H159.395V237.401H159.473V237.558H159.552V237.715H159.631V237.794H159.709V237.951H159.788V238.03H159.866V238.187H159.945V238.344H160.024V238.423H160.102V238.58H160.181V238.737H160.259V238.816H160.338V238.973H160.417V239.13H160.495V239.209H160.574V239.366H160.652V239.523H160.731V239.602H160.81V239.759H160.888V239.916H160.967V240.073H161.045V240.152H161.124V240.309H161.203V240.466H161.281V240.545H161.36V240.702H161.438V240.859H161.517V240.938H161.596V241.095H161.674V241.252H161.753V241.409H161.831V241.488H161.91V241.645H161.989V241.802H162.067V241.881H162.146V242.038H162.224V242.195H162.303V242.274H162.382V242.431H162.46V242.588H162.539V242.746H162.617V242.824H162.696V242.981H162.775V243.139H162.853V243.217H162.932V243.374H163.01V243.532H163.089V243.689H163.167V243.846H163.246V243.925H163.325V244.082H163.403V244.239H163.482V244.396H163.56V244.553H163.639V244.711H163.718V244.789H163.796V244.946H163.875V245.104H163.953V245.261H164.032V245.418H164.111V245.575H164.189V245.654H164.268V245.811H164.346V245.968H164.425V246.125H164.504V246.283H164.582V246.44H164.661V246.518H164.739V246.675H164.818V246.833H164.897V246.99H164.975V247.147H165.054V247.304H165.132V247.383H165.211V247.54H165.29V247.697H165.368V247.854H165.447V248.012H165.525V248.169H165.604V248.247H165.683V248.405H165.761V248.562H165.84V248.719H165.918V248.876H165.997V249.033H166.076V249.191H166.154V249.348H166.233V249.505H166.311V249.662H166.39V249.819H166.469V249.977H166.547V250.134H166.626V250.291H166.704V250.448H166.783V250.605H166.862V250.763H166.94V250.92H167.019V251.077H167.097V251.234H167.176V251.391H167.255V251.549H167.333V251.706H167.412V251.863H167.49V252.02H167.569V252.177H167.648V252.334H167.726V252.492H167.805V252.649H167.883V252.806H167.962V252.963H168.04V253.12H168.119V253.278H168.198V253.435H168.276V253.592H168.355V253.749H168.433V253.906H168.512V254.064H168.591V254.221H168.669V254.378H168.748V254.535H168.826V254.692H168.905V254.85H168.984V255.085H169.062V255.243H169.141V255.4H169.219V255.557H169.298V255.714H169.377V255.871H169.455V256.029H169.534V256.264H169.612V256.422H169.691V256.579H169.77V256.736H169.848V256.893H169.927V257.05H170.005V257.207H170.084V257.443H170.163V257.6H170.241V257.758H170.32V257.915H170.398V258.072H170.477V258.229H170.556V258.386H170.634V258.622H170.713V258.779H170.791V258.937H170.87V259.094H170.949V259.251H171.027V259.408H171.106V259.644H171.184V259.801H171.263V259.958H171.342V260.116H171.42V260.351H171.499V260.509H171.577V260.666H171.656V260.902H171.735V261.059H171.813V261.216H171.892V261.452H171.97V261.609H172.049V261.766H172.128V262.002H172.206V262.159H172.285V262.316H172.363V262.552H172.442V262.709H172.521V262.866H172.599V263.102H172.678V263.259H172.756V263.417H172.835V263.652H172.914V263.81H172.992V263.967H173.071V264.203H173.149V264.36H173.228V264.517H173.307V264.753H173.385V264.91H173.464V265.067H173.542V265.303H173.621V265.46H173.699V265.696H173.778V265.853H173.857V266.089H173.935V266.246H174.014V266.482H174.092V266.639H174.171V266.875H174.25V267.032H174.328V267.268H174.407V267.425H174.485V267.661H174.564V267.818H174.643V268.054H174.721V268.29H174.8V268.447H174.878V268.683H174.957V268.84H175.036V269.076H175.114V269.233H175.193V269.469H175.271V269.626H175.35V269.862H175.429V270.019H175.507V270.255H175.586V270.49H175.664V270.648H175.743V270.883H175.822V271.041H175.9V271.276H175.979V271.434H176.057V271.669H176.136V271.827H176.215V272.062H176.293V272.298H176.372V272.534H176.45V272.691H176.529V272.927H176.608V273.163H176.686V273.32H176.765V273.556H176.843V273.791H176.922V274.027H177.001V274.184H177.079V274.42H177.158V274.656H177.236V274.892H177.315V275.049H177.394V275.285H177.472V275.521H177.551V275.756H177.629V275.914H177.708V276.149H177.787V276.385H177.865V276.621H177.944V276.778H178.022V277.014H178.101V277.25H178.18V277.486H178.258V277.721H178.337V277.957H178.415V278.193H178.494V278.35" fill="url(#paint2_radial_163_15548)"/>
<path d="M22.6633 211.947C22.6633 212.505 22.2117 212.958 21.6542 212.958C21.0967 212.958 20.6445 212.505 20.6445 211.947C20.6445 211.39 21.0967 210.938 21.6542 210.938C22.2117 210.938 22.6633 211.39 22.6633 211.947Z" fill="white"/>
<path d="M22.6633 223.557C22.6633 224.115 22.2117 224.566 21.6542 224.566C21.0967 224.566 20.6445 224.115 20.6445 223.557C20.6445 223 21.0967 222.548 21.6542 222.548C22.2117 222.548 22.6633 223 22.6633 223.557Z" fill="white"/>
<path d="M22.6633 235.165C22.6633 235.722 22.2117 236.175 21.6542 236.175C21.0967 236.175 20.6445 235.722 20.6445 235.165C20.6445 234.607 21.0967 234.156 21.6542 234.156C22.2117 234.156 22.6633 234.607 22.6633 235.165Z" fill="white"/>
<path d="M22.6633 246.774C22.6633 247.332 22.2117 247.783 21.6542 247.783C21.0967 247.783 20.6445 247.332 20.6445 246.774C20.6445 246.217 21.0967 245.766 21.6542 245.766C22.2117 245.766 22.6633 246.217 22.6633 246.774Z" fill="white"/>
<path d="M22.6633 258.383C22.6633 258.94 22.2117 259.393 21.6542 259.393C21.0967 259.393 20.6445 258.94 20.6445 258.383C20.6445 257.825 21.0967 257.373 21.6542 257.373C22.2117 257.373 22.6633 257.825 22.6633 258.383Z" fill="white"/>
<path d="M34.4058 211.947C34.4058 212.505 33.9542 212.958 33.3967 212.958C32.8392 212.958 32.3867 212.505 32.3867 211.947C32.3867 211.39 32.8392 210.938 33.3967 210.938C33.9542 210.938 34.4058 211.39 34.4058 211.947Z" fill="white"/>
<path d="M34.4058 223.557C34.4058 224.115 33.9542 224.566 33.3967 224.566C32.8392 224.566 32.3867 224.115 32.3867 223.557C32.3867 223 32.8392 222.548 33.3967 222.548C33.9542 222.548 34.4058 223 34.4058 223.557Z" fill="white"/>
<path d="M34.4058 235.165C34.4058 235.722 33.9542 236.175 33.3967 236.175C32.8392 236.175 32.3867 235.722 32.3867 235.165C32.3867 234.607 32.8392 234.156 33.3967 234.156C33.9542 234.156 34.4058 234.607 34.4058 235.165Z" fill="white"/>
<path d="M34.4058 246.774C34.4058 247.332 33.9542 247.783 33.3967 247.783C32.8392 247.783 32.3867 247.332 32.3867 246.774C32.3867 246.217 32.8392 245.766 33.3967 245.766C33.9542 245.766 34.4058 246.217 34.4058 246.774Z" fill="white"/>
<path d="M34.4058 258.383C34.4058 258.94 33.9542 259.393 33.3967 259.393C32.8392 259.393 32.3867 258.94 32.3867 258.383C32.3867 257.825 32.8392 257.373 33.3967 257.373C33.9542 257.373 34.4058 257.825 34.4058 258.383Z" fill="white"/>
<path d="M46.1724 211.947C46.1724 212.505 45.7199 212.958 45.1624 212.958C44.6049 212.958 44.1533 212.505 44.1533 211.947C44.1533 211.39 44.6049 210.938 45.1624 210.938C45.7199 210.938 46.1724 211.39 46.1724 211.947Z" fill="white"/>
<path d="M46.1724 223.557C46.1724 224.115 45.7199 224.566 45.1624 224.566C44.6049 224.566 44.1533 224.115 44.1533 223.557C44.1533 223 44.6049 222.548 45.1624 222.548C45.7199 222.548 46.1724 223 46.1724 223.557Z" fill="white"/>
<path d="M46.1724 235.165C46.1724 235.722 45.7199 236.175 45.1624 236.175C44.6049 236.175 44.1533 235.722 44.1533 235.165C44.1533 234.607 44.6049 234.156 45.1624 234.156C45.7199 234.156 46.1724 234.607 46.1724 235.165Z" fill="white"/>
<path d="M46.1724 246.774C46.1724 247.332 45.7199 247.783 45.1624 247.783C44.6049 247.783 44.1533 247.332 44.1533 246.774C44.1533 246.217 44.6049 245.766 45.1624 245.766C45.7199 245.766 46.1724 246.217 46.1724 246.774Z" fill="white"/>
<path d="M22.6633 165.891C22.6633 166.448 22.2117 166.9 21.6542 166.9C21.0967 166.9 20.6445 166.448 20.6445 165.891C20.6445 165.333 21.0967 164.882 21.6542 164.882C22.2117 164.882 22.6633 165.333 22.6633 165.891Z" fill="white"/>
<path d="M22.6633 177.499C22.6633 178.057 22.2117 178.508 21.6542 178.508C21.0967 178.508 20.6445 178.057 20.6445 177.499C20.6445 176.942 21.0967 176.49 21.6542 176.49C22.2117 176.49 22.6633 176.942 22.6633 177.499Z" fill="white"/>
<path d="M22.6633 189.108C22.6633 189.665 22.2117 190.118 21.6542 190.118C21.0967 190.118 20.6445 189.665 20.6445 189.108C20.6445 188.55 21.0967 188.099 21.6542 188.099C22.2117 188.099 22.6633 188.55 22.6633 189.108Z" fill="white"/>
<path d="M22.6633 200.717C22.6633 201.274 22.2117 201.726 21.6542 201.726C21.0967 201.726 20.6445 201.274 20.6445 200.717C20.6445 200.159 21.0967 199.707 21.6542 199.707C22.2117 199.707 22.6633 200.159 22.6633 200.717Z" fill="white"/>
<path d="M34.4058 165.891C34.4058 166.448 33.9542 166.9 33.3967 166.9C32.8392 166.9 32.3867 166.448 32.3867 165.891C32.3867 165.333 32.8392 164.882 33.3967 164.882C33.9542 164.882 34.4058 165.333 34.4058 165.891Z" fill="white"/>
<path d="M34.4058 177.499C34.4058 178.057 33.9542 178.508 33.3967 178.508C32.8392 178.508 32.3867 178.057 32.3867 177.499C32.3867 176.942 32.8392 176.49 33.3967 176.49C33.9542 176.49 34.4058 176.942 34.4058 177.499Z" fill="white"/>
<path d="M34.4058 189.108C34.4058 189.665 33.9542 190.118 33.3967 190.118C32.8392 190.118 32.3867 189.665 32.3867 189.108C32.3867 188.55 32.8392 188.099 33.3967 188.099C33.9542 188.099 34.4058 188.55 34.4058 189.108Z" fill="white"/>
<path d="M34.4058 200.717C34.4058 201.274 33.9542 201.726 33.3967 201.726C32.8392 201.726 32.3867 201.274 32.3867 200.717C32.3867 200.159 32.8392 199.707 33.3967 199.707C33.9542 199.707 34.4058 200.159 34.4058 200.717Z" fill="white"/>
<path d="M46.1724 165.891C46.1724 166.448 45.7199 166.9 45.1624 166.9C44.6049 166.9 44.1533 166.448 44.1533 165.891C44.1533 165.333 44.6049 164.882 45.1624 164.882C45.7199 164.882 46.1724 165.333 46.1724 165.891Z" fill="white"/>
<path d="M46.1724 177.499C46.1724 178.057 45.7199 178.508 45.1624 178.508C44.6049 178.508 44.1533 178.057 44.1533 177.499C44.1533 176.942 44.6049 176.49 45.1624 176.49C45.7199 176.49 46.1724 176.942 46.1724 177.499Z" fill="white"/>
<path d="M46.1724 189.108C46.1724 189.665 45.7199 190.118 45.1624 190.118C44.6049 190.118 44.1533 189.665 44.1533 189.108C44.1533 188.55 44.6049 188.099 45.1624 188.099C45.7199 188.099 46.1724 188.55 46.1724 189.108Z" fill="white"/>
<path d="M46.1724 200.717C46.1724 201.274 45.7199 201.726 45.1624 201.726C44.6049 201.726 44.1533 201.274 44.1533 200.717C44.1533 200.159 44.6049 199.707 45.1624 199.707C45.7199 199.707 46.1724 200.159 46.1724 200.717Z" fill="white"/>
<path d="M46.1724 258.383C46.1724 258.94 45.7199 259.393 45.1624 259.393C44.6049 259.393 44.1533 258.94 44.1533 258.383C44.1533 257.825 44.6049 257.373 45.1624 257.373C45.7199 257.373 46.1724 257.825 46.1724 258.383Z" fill="white"/>
</g>
<defs>
<radialGradient id="paint0_radial_163_15548" cx="0" cy="0" r="1" gradientUnits="userSpaceOnUse" gradientTransform="translate(131.195 15.641) rotate(-53.7396) scale(429.33 429.33)">
<stop offset="0.0167598" stop-color="#500250"/>
<stop offset="0.972067" stop-color="#3E003E"/>
</radialGradient>
<radialGradient id="paint1_radial_163_15548" cx="0" cy="0" r="1" gradientUnits="userSpaceOnUse" gradientTransform="translate(83.2767 256.34) rotate(-30.8999) scale(254.27 254.27)">
<stop offset="0.0743011" stop-color="#3E003E"/>
<stop offset="0.931679" stop-color="#650065"/>
</radialGradient>
<radialGradient id="paint2_radial_163_15548" cx="0" cy="0" r="1" gradientUnits="userSpaceOnUse" gradientTransform="translate(-58.476 339.966) rotate(-47.3894) scale(355.969 355.969)">
<stop offset="0.0167598" stop-color="#450145"/>
<stop offset="1" stop-color="#3E003E"/>
</radialGradient>
</defs>
</svg>
