<svg width="35" height="56" viewBox="0 0 35 56" fill="none" xmlns="http://www.w3.org/2000/svg">
<path fill-rule="evenodd" clip-rule="evenodd" d="M25.1115 19.7246L25.1157 6.73896L13.8657 0.249756L2.61145 6.74617L2.60729 19.7318L8.23439 22.9776V20.8053L4.48299 18.6393L4.48646 7.80714L13.865 2.38805L23.24 7.80113L23.2365 18.6333L19.4886 20.7989V22.9704L25.1115 19.7246ZM21.3619 17.7348L21.3647 9.07771L13.8647 4.75157L6.3619 9.08251L6.35912 17.7396L8.23482 18.8215L8.2369 10.1413L13.864 6.88987L19.489 10.1377V18.8159L21.3619 17.7348ZM27.1115 28.3439L26.9892 31.0115H28.8656V29.1333L30.7413 28.0495L32.6163 29.1321L32.6164 40.534L28.8656 50.5363V55.3956H30.7413V50.8764L34.4927 40.8727L34.492 28.0743L30.742 25.9112L28.8647 26.9949L25.1156 25.1206L23.2382 26.2085L19.4871 23.984L17.6093 25.0719L17.6106 14.4199L13.8614 12.2545L10.11 14.4199L10.1087 34.0941L7.24521 29.1333L2.91607 29.1351L0.75 32.8861L4.55027 39.4698L5.62676 44.7373L11.9843 51.0948V55.3956H13.86V50.3179L7.35162 43.8095L6.32717 38.7967L2.90213 32.8637L3.98462 30.9872L6.14973 30.9873L11.9844 41.0942L11.985 15.4766L13.8607 14.3928L15.7357 15.4754L15.735 31.0115H17.6114L17.61 27.2074L19.4871 26.1223L21.3608 27.2062L21.3621 31.0115H23.2385V28.3439L25.1156 27.2589L27.1115 28.3439Z" fill="white"/>
</svg>
