<svg width="55" height="43" viewBox="0 0 55 43" fill="none" xmlns="http://www.w3.org/2000/svg">
<line x1="4" y1="2" x2="51" y2="2" stroke="#500250" stroke-width="3" stroke-linecap="round"/>
<line x1="53" y1="4" x2="53" y2="27" stroke="#450145" stroke-width="3" stroke-linecap="round"/>
<path d="M48 27.5H46.5V30.5H48V27.5ZM51 30.5C51.8284 30.5 52.5 29.8284 52.5 29C52.5 28.1716 51.8284 27.5 51 27.5V30.5ZM48 30.5H51V27.5H48V30.5Z" fill="#500250"/>
<path d="M2 3.5L2 28" stroke="#500250" stroke-width="3" stroke-linecap="round"/>
<path d="M2 27C1.17157 27 0.5 27.6716 0.5 28.5C0.5 29.3284 1.17157 30 2 30V27ZM7 30H8.5V27H7V30ZM2 30H7V27H2V30Z" fill="#500250"/>
<path d="M13 22H43V39.5C43 40.3284 42.3284 41 41.5 41H14.5C13.6716 41 13 40.3284 13 39.5V22Z" stroke="#450145" stroke-width="3"/>
<rect x="7.5" y="7.5" width="5" height="5" rx="2.5" fill="#500250"/>
<path d="M7 2H4V2C3.10421 2 2.30893 2.57321 2.02566 3.42303L2 3.5V5V7.5" stroke="#500250" stroke-width="3"/>
<path d="M48 29H51V29C51.8958 29 52.6911 28.4268 52.9743 27.577L53 27.5V26V23.5" stroke="#500250" stroke-width="3"/>
<path d="M53 7V4V4C53 3.10421 52.4268 2.30893 51.577 2.02566L51.5 2L50 2H47.5" stroke="#500250" stroke-width="3"/>
</svg>
